G04 #@! TF.FileFunction,Copper,L2,Bot,Signal*
%FSLAX46Y46*%
G04 Gerber Fmt 4.6, Leading zero omitted, Abs format (unit mm)*
G04 Created by KiCad (PCBNEW (2015-05-10 BZR 5649)-product) date Thursday, May 21, 2015 'PMt' 11:26:23 PM*
%MOMM*%
G01*
G04 APERTURE LIST*
%ADD10C,0.100000*%
%ADD11C,1.480820*%
%ADD12R,3.500120X3.500120*%
%ADD13R,1.699260X1.699260*%
%ADD14C,1.998980*%
%ADD15R,1.998980X1.998980*%
%ADD16C,1.524000*%
%ADD17R,2.032000X2.032000*%
%ADD18O,2.032000X2.032000*%
%ADD19R,2.032000X1.727200*%
%ADD20O,2.032000X1.727200*%
%ADD21O,2.540000X2.032000*%
%ADD22C,1.397000*%
%ADD23C,1.900000*%
%ADD24C,0.685800*%
%ADD25C,0.250000*%
%ADD26C,0.254000*%
G04 APERTURE END LIST*
D10*
D11*
X168910000Y-172704760D03*
X168910000Y-170703240D03*
X168910000Y-165084760D03*
X168910000Y-163083240D03*
D12*
X187601860Y-170180000D03*
X193601340Y-170180000D03*
X190601600Y-165481000D03*
D13*
X160528000Y-141986000D03*
D14*
X160528000Y-144526000D03*
X186690000Y-162557460D03*
D15*
X176530000Y-162557460D03*
D16*
X169340000Y-135240000D03*
X169340000Y-137240000D03*
X169340000Y-141240000D03*
X169340000Y-139240000D03*
X169340000Y-145240000D03*
X169340000Y-147240000D03*
X169340000Y-149240000D03*
X169340000Y-151240000D03*
X169340000Y-153240000D03*
X191340000Y-153240000D03*
X191340000Y-151240000D03*
X191340000Y-149240000D03*
X191340000Y-147240000D03*
X191340000Y-145240000D03*
X191340000Y-143240000D03*
X191340000Y-141240000D03*
X191340000Y-139240000D03*
X191340000Y-137240000D03*
X191340000Y-135240000D03*
X169340000Y-143240000D03*
D17*
X144780000Y-170180000D03*
D18*
X144780000Y-172720000D03*
D19*
X151130000Y-167640000D03*
D20*
X151130000Y-170180000D03*
X151130000Y-172720000D03*
D19*
X165100000Y-132080000D03*
D20*
X165100000Y-134620000D03*
X165100000Y-137160000D03*
X165100000Y-139700000D03*
X165100000Y-142240000D03*
X165100000Y-144780000D03*
X165100000Y-147320000D03*
X165100000Y-149860000D03*
X165100000Y-152400000D03*
X165100000Y-154940000D03*
D19*
X195580000Y-132080000D03*
D20*
X195580000Y-134620000D03*
X195580000Y-137160000D03*
X195580000Y-139700000D03*
X195580000Y-142240000D03*
X195580000Y-144780000D03*
X195580000Y-147320000D03*
X195580000Y-149860000D03*
X195580000Y-152400000D03*
X195580000Y-154940000D03*
D19*
X132080000Y-129540000D03*
D20*
X132080000Y-132080000D03*
X132080000Y-134620000D03*
X132080000Y-137160000D03*
X132080000Y-139700000D03*
X132080000Y-142240000D03*
X132080000Y-144780000D03*
X132080000Y-147320000D03*
X132080000Y-149860000D03*
X132080000Y-152400000D03*
X132080000Y-154940000D03*
X132080000Y-157480000D03*
X132080000Y-160020000D03*
X132080000Y-162560000D03*
D19*
X154940000Y-129540000D03*
D20*
X154940000Y-132080000D03*
X154940000Y-134620000D03*
X154940000Y-137160000D03*
X154940000Y-139700000D03*
X154940000Y-142240000D03*
X154940000Y-144780000D03*
X154940000Y-147320000D03*
X154940000Y-149860000D03*
X154940000Y-152400000D03*
X154940000Y-154940000D03*
X154940000Y-157480000D03*
X154940000Y-160020000D03*
X154940000Y-162560000D03*
D21*
X161290000Y-168910000D03*
X161290000Y-171450000D03*
X161290000Y-166370000D03*
D14*
X160528000Y-158242000D03*
X160528000Y-148082000D03*
D22*
X138430000Y-167640000D03*
X138430000Y-172720000D03*
X130810000Y-167640000D03*
X130810000Y-172720000D03*
D23*
X148590000Y-162560000D03*
X146050000Y-162560000D03*
X143510000Y-162560000D03*
X140970000Y-162560000D03*
X138430000Y-162560000D03*
X135890000Y-132080000D03*
X135890000Y-134620000D03*
X135890000Y-137160000D03*
X135890000Y-139700000D03*
X135890000Y-142240000D03*
X135890000Y-144780000D03*
X135890000Y-147320000D03*
X135890000Y-149860000D03*
X135890000Y-152400000D03*
X135890000Y-154940000D03*
X135890000Y-157480000D03*
X135890000Y-160020000D03*
X135890000Y-162560000D03*
X151130000Y-162560000D03*
X151130000Y-160020000D03*
X151130000Y-157480000D03*
X151130000Y-154940000D03*
X151130000Y-152400000D03*
X151130000Y-149860000D03*
X151130000Y-147320000D03*
X151130000Y-144780000D03*
X151130000Y-142240000D03*
X151130000Y-139700000D03*
X151130000Y-137160000D03*
X151130000Y-134620000D03*
X151130000Y-132080000D03*
X151130000Y-129540000D03*
X135890000Y-129540000D03*
D24*
X154940000Y-170180000D03*
X158750000Y-129540000D03*
X172720000Y-162560000D03*
X172720000Y-172720000D03*
X159258000Y-138430000D03*
X137922000Y-128016000D03*
X140970000Y-171450000D03*
X165608000Y-170688000D03*
X184912000Y-173736000D03*
X174752000Y-165608000D03*
X171450000Y-160020000D03*
X193294000Y-146304000D03*
X193294000Y-155194000D03*
D25*
X158750000Y-129540000D02*
X158750000Y-133350000D01*
X158750000Y-133350000D02*
X157480000Y-134620000D01*
X157480000Y-162560000D02*
X157480000Y-170180000D01*
X157480000Y-134620000D02*
X157480000Y-162560000D01*
X157480000Y-170180000D02*
X154940000Y-170180000D01*
X163830000Y-162560000D02*
X166370000Y-160020000D01*
X166370000Y-160020000D02*
X170180000Y-160020000D01*
X170180000Y-160020000D02*
X172720000Y-162560000D01*
X157480000Y-162560000D02*
X163830000Y-162560000D01*
X172720000Y-162560000D02*
X172720000Y-172720000D01*
X130810000Y-172720000D02*
X138430000Y-172720000D01*
X170800000Y-135240000D02*
X171450000Y-135890000D01*
X171450000Y-135890000D02*
X171450000Y-160020000D01*
X169340000Y-135240000D02*
X170800000Y-135240000D01*
D26*
X193294000Y-155194000D02*
X193294000Y-146304000D01*
D25*
X132080000Y-162560000D02*
X135890000Y-162560000D01*
X130810000Y-167640000D02*
X138430000Y-167640000D01*
D26*
G36*
X197435000Y-174575000D02*
X197263345Y-174575000D01*
X197263345Y-154940000D01*
X197149271Y-154366511D01*
X196824415Y-153880330D01*
X196509634Y-153670000D01*
X196824415Y-153459670D01*
X197149271Y-152973489D01*
X197263345Y-152400000D01*
X197149271Y-151826511D01*
X196824415Y-151340330D01*
X196509634Y-151130000D01*
X196824415Y-150919670D01*
X197149271Y-150433489D01*
X197263345Y-149860000D01*
X197149271Y-149286511D01*
X196824415Y-148800330D01*
X196509634Y-148590000D01*
X196824415Y-148379670D01*
X197149271Y-147893489D01*
X197263345Y-147320000D01*
X197149271Y-146746511D01*
X196824415Y-146260330D01*
X196509634Y-146050000D01*
X196824415Y-145839670D01*
X197149271Y-145353489D01*
X197263345Y-144780000D01*
X197149271Y-144206511D01*
X196824415Y-143720330D01*
X196509634Y-143510000D01*
X196824415Y-143299670D01*
X197149271Y-142813489D01*
X197263345Y-142240000D01*
X197149271Y-141666511D01*
X196824415Y-141180330D01*
X196509634Y-140970000D01*
X196824415Y-140759670D01*
X197149271Y-140273489D01*
X197263345Y-139700000D01*
X197149271Y-139126511D01*
X196824415Y-138640330D01*
X196509634Y-138430000D01*
X196824415Y-138219670D01*
X197149271Y-137733489D01*
X197263345Y-137160000D01*
X197149271Y-136586511D01*
X196824415Y-136100330D01*
X196509634Y-135890000D01*
X196824415Y-135679670D01*
X197149271Y-135193489D01*
X197263345Y-134620000D01*
X197149271Y-134046511D01*
X196824415Y-133560330D01*
X196808632Y-133549784D01*
X196838123Y-133544063D01*
X197050927Y-133404273D01*
X197193377Y-133193240D01*
X197243440Y-132943600D01*
X197243440Y-131216400D01*
X197196463Y-130974277D01*
X197056673Y-130761473D01*
X196845640Y-130619023D01*
X196596000Y-130568960D01*
X194564000Y-130568960D01*
X194321877Y-130615937D01*
X194109073Y-130755727D01*
X193966623Y-130966760D01*
X193916560Y-131216400D01*
X193916560Y-132943600D01*
X193963537Y-133185723D01*
X194103327Y-133398527D01*
X194314360Y-133540977D01*
X194352962Y-133548718D01*
X194335585Y-133560330D01*
X194010729Y-134046511D01*
X193896655Y-134620000D01*
X194010729Y-135193489D01*
X194335585Y-135679670D01*
X194650365Y-135890000D01*
X194335585Y-136100330D01*
X194010729Y-136586511D01*
X193896655Y-137160000D01*
X194010729Y-137733489D01*
X194335585Y-138219670D01*
X194650365Y-138430000D01*
X194335585Y-138640330D01*
X194010729Y-139126511D01*
X193896655Y-139700000D01*
X194010729Y-140273489D01*
X194335585Y-140759670D01*
X194650365Y-140970000D01*
X194335585Y-141180330D01*
X194010729Y-141666511D01*
X193896655Y-142240000D01*
X194010729Y-142813489D01*
X194335585Y-143299670D01*
X194650365Y-143510000D01*
X194335585Y-143720330D01*
X194010729Y-144206511D01*
X193896655Y-144780000D01*
X194010729Y-145353489D01*
X194335585Y-145839670D01*
X194650365Y-146050000D01*
X194335585Y-146260330D01*
X194271855Y-146355708D01*
X194272069Y-146110337D01*
X194123507Y-145750788D01*
X193848659Y-145475460D01*
X193489370Y-145326270D01*
X193100337Y-145325931D01*
X192740788Y-145474493D01*
X192736792Y-145478481D01*
X192737242Y-144963339D01*
X192525010Y-144449697D01*
X192315657Y-144239978D01*
X192523629Y-144032370D01*
X192736757Y-143519100D01*
X192737242Y-142963339D01*
X192525010Y-142449697D01*
X192315657Y-142239978D01*
X192523629Y-142032370D01*
X192736757Y-141519100D01*
X192737242Y-140963339D01*
X192525010Y-140449697D01*
X192315657Y-140239978D01*
X192523629Y-140032370D01*
X192736757Y-139519100D01*
X192737242Y-138963339D01*
X192525010Y-138449697D01*
X192315657Y-138239978D01*
X192523629Y-138032370D01*
X192736757Y-137519100D01*
X192737242Y-136963339D01*
X192525010Y-136449697D01*
X192315657Y-136239978D01*
X192523629Y-136032370D01*
X192736757Y-135519100D01*
X192737242Y-134963339D01*
X192525010Y-134449697D01*
X192132370Y-134056371D01*
X191619100Y-133843243D01*
X191063339Y-133842758D01*
X190549697Y-134054990D01*
X190156371Y-134447630D01*
X189943243Y-134960900D01*
X189942758Y-135516661D01*
X190154990Y-136030303D01*
X190364342Y-136240021D01*
X190156371Y-136447630D01*
X189943243Y-136960900D01*
X189942758Y-137516661D01*
X190154990Y-138030303D01*
X190364342Y-138240021D01*
X190156371Y-138447630D01*
X189943243Y-138960900D01*
X189942758Y-139516661D01*
X190154990Y-140030303D01*
X190364342Y-140240021D01*
X190156371Y-140447630D01*
X189943243Y-140960900D01*
X189942758Y-141516661D01*
X190154990Y-142030303D01*
X190364342Y-142240021D01*
X190156371Y-142447630D01*
X189943243Y-142960900D01*
X189942758Y-143516661D01*
X190154990Y-144030303D01*
X190364342Y-144240021D01*
X190156371Y-144447630D01*
X189943243Y-144960900D01*
X189942758Y-145516661D01*
X190154990Y-146030303D01*
X190364342Y-146240021D01*
X190156371Y-146447630D01*
X189943243Y-146960900D01*
X189942758Y-147516661D01*
X190154990Y-148030303D01*
X190364342Y-148240021D01*
X190156371Y-148447630D01*
X189943243Y-148960900D01*
X189942758Y-149516661D01*
X190154990Y-150030303D01*
X190364342Y-150240021D01*
X190156371Y-150447630D01*
X189943243Y-150960900D01*
X189942758Y-151516661D01*
X190154990Y-152030303D01*
X190364342Y-152240021D01*
X190156371Y-152447630D01*
X189943243Y-152960900D01*
X189942758Y-153516661D01*
X190154990Y-154030303D01*
X190547630Y-154423629D01*
X191060900Y-154636757D01*
X191616661Y-154637242D01*
X192130303Y-154425010D01*
X192523629Y-154032370D01*
X192532000Y-154012210D01*
X192532000Y-154572917D01*
X192465460Y-154639341D01*
X192316270Y-154998630D01*
X192315931Y-155387663D01*
X192464493Y-155747212D01*
X192739341Y-156022540D01*
X193098630Y-156171730D01*
X193487663Y-156172069D01*
X193847212Y-156023507D01*
X194122540Y-155748659D01*
X194139911Y-155706824D01*
X194335585Y-155999670D01*
X194821766Y-156324526D01*
X195395255Y-156438600D01*
X195764745Y-156438600D01*
X196338234Y-156324526D01*
X196824415Y-155999670D01*
X197149271Y-155513489D01*
X197263345Y-154940000D01*
X197263345Y-174575000D01*
X195986400Y-174575000D01*
X195986400Y-172056370D01*
X195986400Y-171803751D01*
X195986400Y-170465750D01*
X195986400Y-169894250D01*
X195986400Y-168556249D01*
X195986400Y-168303630D01*
X195889727Y-168070241D01*
X195711098Y-167891613D01*
X195477709Y-167794940D01*
X193887090Y-167794940D01*
X193728340Y-167953690D01*
X193728340Y-170053000D01*
X195827650Y-170053000D01*
X195986400Y-169894250D01*
X195986400Y-170465750D01*
X195827650Y-170307000D01*
X193728340Y-170307000D01*
X193728340Y-172406310D01*
X193887090Y-172565060D01*
X195477709Y-172565060D01*
X195711098Y-172468387D01*
X195889727Y-172289759D01*
X195986400Y-172056370D01*
X195986400Y-174575000D01*
X193474340Y-174575000D01*
X193474340Y-172406310D01*
X193474340Y-170307000D01*
X193474340Y-170053000D01*
X193474340Y-167953690D01*
X193315590Y-167794940D01*
X192649473Y-167794940D01*
X192806587Y-167691733D01*
X192949037Y-167480700D01*
X192999100Y-167231060D01*
X192999100Y-163730940D01*
X192952123Y-163488817D01*
X192812333Y-163276013D01*
X192601300Y-163133563D01*
X192351660Y-163083500D01*
X188851540Y-163083500D01*
X188609417Y-163130477D01*
X188396613Y-163270267D01*
X188324774Y-163376693D01*
X188324774Y-162233766D01*
X188076462Y-161632805D01*
X187617073Y-161172614D01*
X187016547Y-160923254D01*
X186366306Y-160922686D01*
X185765345Y-161170998D01*
X185305154Y-161630387D01*
X185055794Y-162230913D01*
X185055226Y-162881154D01*
X185303538Y-163482115D01*
X185762927Y-163942306D01*
X186363453Y-164191666D01*
X187013694Y-164192234D01*
X187614655Y-163943922D01*
X188074846Y-163484533D01*
X188324206Y-162884007D01*
X188324774Y-162233766D01*
X188324774Y-163376693D01*
X188254163Y-163481300D01*
X188204100Y-163730940D01*
X188204100Y-167231060D01*
X188251077Y-167473183D01*
X188390867Y-167685987D01*
X188533846Y-167782500D01*
X185851800Y-167782500D01*
X185609677Y-167829477D01*
X185396873Y-167969267D01*
X185254423Y-168180300D01*
X185204360Y-168429940D01*
X185204360Y-171930060D01*
X185251337Y-172172183D01*
X185391127Y-172384987D01*
X185602160Y-172527437D01*
X185851800Y-172577500D01*
X189351920Y-172577500D01*
X189594043Y-172530523D01*
X189806847Y-172390733D01*
X189949297Y-172179700D01*
X189999360Y-171930060D01*
X189999360Y-168429940D01*
X189952383Y-168187817D01*
X189812593Y-167975013D01*
X189669613Y-167878500D01*
X191523239Y-167878500D01*
X191491582Y-167891613D01*
X191312953Y-168070241D01*
X191216280Y-168303630D01*
X191216280Y-168556249D01*
X191216280Y-169894250D01*
X191375030Y-170053000D01*
X193474340Y-170053000D01*
X193474340Y-170307000D01*
X191375030Y-170307000D01*
X191216280Y-170465750D01*
X191216280Y-171803751D01*
X191216280Y-172056370D01*
X191312953Y-172289759D01*
X191491582Y-172468387D01*
X191724971Y-172565060D01*
X193315590Y-172565060D01*
X193474340Y-172406310D01*
X193474340Y-174575000D01*
X178176930Y-174575000D01*
X178176930Y-163556950D01*
X178176930Y-161557970D01*
X178129953Y-161315847D01*
X177990163Y-161103043D01*
X177779130Y-160960593D01*
X177529490Y-160910530D01*
X175530510Y-160910530D01*
X175288387Y-160957507D01*
X175075583Y-161097297D01*
X174933133Y-161308330D01*
X174883070Y-161557970D01*
X174883070Y-163556950D01*
X174930047Y-163799073D01*
X175069837Y-164011877D01*
X175280870Y-164154327D01*
X175530510Y-164204390D01*
X177529490Y-164204390D01*
X177771613Y-164157413D01*
X177984417Y-164017623D01*
X178126867Y-163806590D01*
X178176930Y-163556950D01*
X178176930Y-174575000D01*
X173698069Y-174575000D01*
X173698069Y-172526337D01*
X173549507Y-172166788D01*
X173480000Y-172097159D01*
X173480000Y-163183079D01*
X173548540Y-163114659D01*
X173697730Y-162755370D01*
X173698069Y-162366337D01*
X173549507Y-162006788D01*
X173274659Y-161731460D01*
X172915370Y-161582270D01*
X172816986Y-161582184D01*
X172043795Y-160808993D01*
X172278540Y-160574659D01*
X172427730Y-160215370D01*
X172428069Y-159826337D01*
X172279507Y-159466788D01*
X172210000Y-159397159D01*
X172210000Y-135890000D01*
X172152148Y-135599161D01*
X171987401Y-135352599D01*
X171337401Y-134702599D01*
X171090839Y-134537852D01*
X170800000Y-134480000D01*
X170537530Y-134480000D01*
X170525010Y-134449697D01*
X170132370Y-134056371D01*
X169619100Y-133843243D01*
X169063339Y-133842758D01*
X168549697Y-134054990D01*
X168156371Y-134447630D01*
X167943243Y-134960900D01*
X167942758Y-135516661D01*
X168154990Y-136030303D01*
X168364342Y-136240021D01*
X168156371Y-136447630D01*
X167943243Y-136960900D01*
X167942758Y-137516661D01*
X168154990Y-138030303D01*
X168364342Y-138240021D01*
X168156371Y-138447630D01*
X167943243Y-138960900D01*
X167942758Y-139516661D01*
X168154990Y-140030303D01*
X168364342Y-140240021D01*
X168156371Y-140447630D01*
X167943243Y-140960900D01*
X167942758Y-141516661D01*
X168154990Y-142030303D01*
X168364342Y-142240021D01*
X168156371Y-142447630D01*
X167943243Y-142960900D01*
X167942758Y-143516661D01*
X168154990Y-144030303D01*
X168364342Y-144240021D01*
X168156371Y-144447630D01*
X167943243Y-144960900D01*
X167942758Y-145516661D01*
X168154990Y-146030303D01*
X168364342Y-146240021D01*
X168156371Y-146447630D01*
X167943243Y-146960900D01*
X167942758Y-147516661D01*
X168154990Y-148030303D01*
X168364342Y-148240021D01*
X168156371Y-148447630D01*
X167943243Y-148960900D01*
X167942758Y-149516661D01*
X168154990Y-150030303D01*
X168364342Y-150240021D01*
X168156371Y-150447630D01*
X167943243Y-150960900D01*
X167942758Y-151516661D01*
X168154990Y-152030303D01*
X168547630Y-152423629D01*
X168813726Y-152534121D01*
X169340000Y-153060395D01*
X169866302Y-152534092D01*
X170130303Y-152425010D01*
X170523629Y-152032370D01*
X170690000Y-151631703D01*
X170690000Y-152816917D01*
X170562397Y-152508857D01*
X170320213Y-152439392D01*
X169519605Y-153240000D01*
X170320213Y-154040608D01*
X170562397Y-153971143D01*
X170690000Y-153613476D01*
X170690000Y-159396920D01*
X170649572Y-159437277D01*
X170470839Y-159317852D01*
X170180000Y-159260000D01*
X170140608Y-159260000D01*
X170140608Y-154220213D01*
X169340000Y-153419605D01*
X169160395Y-153599210D01*
X169160395Y-153240000D01*
X168359787Y-152439392D01*
X168117603Y-152508857D01*
X167930856Y-153032302D01*
X167958638Y-153587368D01*
X168117603Y-153971143D01*
X168359787Y-154040608D01*
X169160395Y-153240000D01*
X169160395Y-153599210D01*
X168539392Y-154220213D01*
X168608857Y-154462397D01*
X169132302Y-154649144D01*
X169687368Y-154621362D01*
X170071143Y-154462397D01*
X170140608Y-154220213D01*
X170140608Y-159260000D01*
X166783345Y-159260000D01*
X166783345Y-152400000D01*
X166669271Y-151826511D01*
X166344415Y-151340330D01*
X166029634Y-151130000D01*
X166344415Y-150919670D01*
X166669271Y-150433489D01*
X166783345Y-149860000D01*
X166669271Y-149286511D01*
X166344415Y-148800330D01*
X166029634Y-148590000D01*
X166344415Y-148379670D01*
X166669271Y-147893489D01*
X166783345Y-147320000D01*
X166669271Y-146746511D01*
X166344415Y-146260330D01*
X166029634Y-146050000D01*
X166344415Y-145839670D01*
X166669271Y-145353489D01*
X166783345Y-144780000D01*
X166669271Y-144206511D01*
X166344415Y-143720330D01*
X166029634Y-143510000D01*
X166344415Y-143299670D01*
X166669271Y-142813489D01*
X166783345Y-142240000D01*
X166669271Y-141666511D01*
X166344415Y-141180330D01*
X166029634Y-140970000D01*
X166344415Y-140759670D01*
X166669271Y-140273489D01*
X166783345Y-139700000D01*
X166669271Y-139126511D01*
X166344415Y-138640330D01*
X166029634Y-138430000D01*
X166344415Y-138219670D01*
X166669271Y-137733489D01*
X166783345Y-137160000D01*
X166669271Y-136586511D01*
X166344415Y-136100330D01*
X166029634Y-135890000D01*
X166344415Y-135679670D01*
X166669271Y-135193489D01*
X166783345Y-134620000D01*
X166669271Y-134046511D01*
X166344415Y-133560330D01*
X166328632Y-133549784D01*
X166358123Y-133544063D01*
X166570927Y-133404273D01*
X166713377Y-133193240D01*
X166763440Y-132943600D01*
X166763440Y-131216400D01*
X166716463Y-130974277D01*
X166576673Y-130761473D01*
X166365640Y-130619023D01*
X166116000Y-130568960D01*
X164084000Y-130568960D01*
X163841877Y-130615937D01*
X163629073Y-130755727D01*
X163486623Y-130966760D01*
X163436560Y-131216400D01*
X163436560Y-132943600D01*
X163483537Y-133185723D01*
X163623327Y-133398527D01*
X163834360Y-133540977D01*
X163872962Y-133548718D01*
X163855585Y-133560330D01*
X163530729Y-134046511D01*
X163416655Y-134620000D01*
X163530729Y-135193489D01*
X163855585Y-135679670D01*
X164170365Y-135890000D01*
X163855585Y-136100330D01*
X163530729Y-136586511D01*
X163416655Y-137160000D01*
X163530729Y-137733489D01*
X163855585Y-138219670D01*
X164170365Y-138430000D01*
X163855585Y-138640330D01*
X163530729Y-139126511D01*
X163416655Y-139700000D01*
X163530729Y-140273489D01*
X163855585Y-140759670D01*
X164170365Y-140970000D01*
X163855585Y-141180330D01*
X163530729Y-141666511D01*
X163416655Y-142240000D01*
X163530729Y-142813489D01*
X163855585Y-143299670D01*
X164170365Y-143510000D01*
X163855585Y-143720330D01*
X163530729Y-144206511D01*
X163416655Y-144780000D01*
X163530729Y-145353489D01*
X163855585Y-145839670D01*
X164170365Y-146050000D01*
X163855585Y-146260330D01*
X163530729Y-146746511D01*
X163416655Y-147320000D01*
X163530729Y-147893489D01*
X163855585Y-148379670D01*
X164170365Y-148590000D01*
X163855585Y-148800330D01*
X163530729Y-149286511D01*
X163416655Y-149860000D01*
X163530729Y-150433489D01*
X163855585Y-150919670D01*
X164170365Y-151130000D01*
X163855585Y-151340330D01*
X163530729Y-151826511D01*
X163416655Y-152400000D01*
X163530729Y-152973489D01*
X163855585Y-153459670D01*
X164165069Y-153666460D01*
X163749268Y-154037964D01*
X163495291Y-154565209D01*
X163492642Y-154580974D01*
X163613783Y-154813000D01*
X164973000Y-154813000D01*
X164973000Y-154793000D01*
X165227000Y-154793000D01*
X165227000Y-154813000D01*
X166586217Y-154813000D01*
X166707358Y-154580974D01*
X166704709Y-154565209D01*
X166450732Y-154037964D01*
X166034930Y-153666460D01*
X166344415Y-153459670D01*
X166669271Y-152973489D01*
X166783345Y-152400000D01*
X166783345Y-159260000D01*
X166707358Y-159260000D01*
X166707358Y-155299026D01*
X166586217Y-155067000D01*
X165227000Y-155067000D01*
X165227000Y-156280924D01*
X165461913Y-156425184D01*
X166014320Y-156231954D01*
X166450732Y-155842036D01*
X166704709Y-155314791D01*
X166707358Y-155299026D01*
X166707358Y-159260000D01*
X166370000Y-159260000D01*
X166127413Y-159308253D01*
X166079160Y-159317852D01*
X165832599Y-159482599D01*
X164973000Y-160342198D01*
X164973000Y-156280924D01*
X164973000Y-155067000D01*
X163613783Y-155067000D01*
X163492642Y-155299026D01*
X163495291Y-155314791D01*
X163749268Y-155842036D01*
X164185680Y-156231954D01*
X164738087Y-156425184D01*
X164973000Y-156280924D01*
X164973000Y-160342198D01*
X163515198Y-161800000D01*
X162162774Y-161800000D01*
X162162774Y-157918306D01*
X162162774Y-147758306D01*
X162162774Y-144202306D01*
X161914462Y-143601345D01*
X161702055Y-143388567D01*
X161737328Y-143373957D01*
X161915957Y-143195329D01*
X162012630Y-142961940D01*
X162012630Y-142709321D01*
X162012630Y-142271750D01*
X162012630Y-141700250D01*
X162012630Y-141262679D01*
X162012630Y-141010060D01*
X161915957Y-140776671D01*
X161737328Y-140598043D01*
X161503939Y-140501370D01*
X160813750Y-140501370D01*
X160655000Y-140660120D01*
X160655000Y-141859000D01*
X161853880Y-141859000D01*
X162012630Y-141700250D01*
X162012630Y-142271750D01*
X161853880Y-142113000D01*
X160655000Y-142113000D01*
X160655000Y-142133000D01*
X160401000Y-142133000D01*
X160401000Y-142113000D01*
X160401000Y-141859000D01*
X160401000Y-140660120D01*
X160242250Y-140501370D01*
X159552061Y-140501370D01*
X159318672Y-140598043D01*
X159140043Y-140776671D01*
X159043370Y-141010060D01*
X159043370Y-141262679D01*
X159043370Y-141700250D01*
X159202120Y-141859000D01*
X160401000Y-141859000D01*
X160401000Y-142113000D01*
X159202120Y-142113000D01*
X159043370Y-142271750D01*
X159043370Y-142709321D01*
X159043370Y-142961940D01*
X159140043Y-143195329D01*
X159318672Y-143373957D01*
X159353899Y-143388548D01*
X159143154Y-143598927D01*
X158893794Y-144199453D01*
X158893226Y-144849694D01*
X159141538Y-145450655D01*
X159600927Y-145910846D01*
X160201453Y-146160206D01*
X160851694Y-146160774D01*
X161452655Y-145912462D01*
X161912846Y-145453073D01*
X162162206Y-144852547D01*
X162162774Y-144202306D01*
X162162774Y-147758306D01*
X161914462Y-147157345D01*
X161455073Y-146697154D01*
X160854547Y-146447794D01*
X160204306Y-146447226D01*
X159603345Y-146695538D01*
X159143154Y-147154927D01*
X158893794Y-147755453D01*
X158893226Y-148405694D01*
X159141538Y-149006655D01*
X159600927Y-149466846D01*
X160201453Y-149716206D01*
X160851694Y-149716774D01*
X161452655Y-149468462D01*
X161912846Y-149009073D01*
X162162206Y-148408547D01*
X162162774Y-147758306D01*
X162162774Y-157918306D01*
X161914462Y-157317345D01*
X161455073Y-156857154D01*
X160854547Y-156607794D01*
X160204306Y-156607226D01*
X159603345Y-156855538D01*
X159143154Y-157314927D01*
X158893794Y-157915453D01*
X158893226Y-158565694D01*
X159141538Y-159166655D01*
X159600927Y-159626846D01*
X160201453Y-159876206D01*
X160851694Y-159876774D01*
X161452655Y-159628462D01*
X161912846Y-159169073D01*
X162162206Y-158568547D01*
X162162774Y-157918306D01*
X162162774Y-161800000D01*
X158240000Y-161800000D01*
X158240000Y-134934802D01*
X159287401Y-133887401D01*
X159452148Y-133640840D01*
X159452148Y-133640839D01*
X159510000Y-133350000D01*
X159510000Y-130163079D01*
X159578540Y-130094659D01*
X159727730Y-129735370D01*
X159728069Y-129346337D01*
X159579507Y-128986788D01*
X159304659Y-128711460D01*
X158945370Y-128562270D01*
X158556337Y-128561931D01*
X158196788Y-128710493D01*
X157921460Y-128985341D01*
X157772270Y-129344630D01*
X157771931Y-129733663D01*
X157920493Y-130093212D01*
X157990000Y-130162840D01*
X157990000Y-133035198D01*
X156942599Y-134082599D01*
X156777852Y-134329161D01*
X156720000Y-134620000D01*
X156720000Y-162560000D01*
X156720000Y-169420000D01*
X156623345Y-169420000D01*
X156623345Y-162560000D01*
X156509271Y-161986511D01*
X156184415Y-161500330D01*
X155869634Y-161290000D01*
X156184415Y-161079670D01*
X156509271Y-160593489D01*
X156623345Y-160020000D01*
X156509271Y-159446511D01*
X156184415Y-158960330D01*
X155869634Y-158750000D01*
X156184415Y-158539670D01*
X156509271Y-158053489D01*
X156623345Y-157480000D01*
X156509271Y-156906511D01*
X156184415Y-156420330D01*
X155869634Y-156210000D01*
X156184415Y-155999670D01*
X156509271Y-155513489D01*
X156623345Y-154940000D01*
X156509271Y-154366511D01*
X156184415Y-153880330D01*
X155869634Y-153670000D01*
X156184415Y-153459670D01*
X156509271Y-152973489D01*
X156623345Y-152400000D01*
X156509271Y-151826511D01*
X156184415Y-151340330D01*
X155869634Y-151130000D01*
X156184415Y-150919670D01*
X156509271Y-150433489D01*
X156623345Y-149860000D01*
X156509271Y-149286511D01*
X156184415Y-148800330D01*
X155869634Y-148590000D01*
X156184415Y-148379670D01*
X156509271Y-147893489D01*
X156623345Y-147320000D01*
X156509271Y-146746511D01*
X156184415Y-146260330D01*
X155869634Y-146050000D01*
X156184415Y-145839670D01*
X156509271Y-145353489D01*
X156623345Y-144780000D01*
X156509271Y-144206511D01*
X156184415Y-143720330D01*
X155869634Y-143510000D01*
X156184415Y-143299670D01*
X156509271Y-142813489D01*
X156623345Y-142240000D01*
X156509271Y-141666511D01*
X156184415Y-141180330D01*
X155869634Y-140970000D01*
X156184415Y-140759670D01*
X156509271Y-140273489D01*
X156623345Y-139700000D01*
X156509271Y-139126511D01*
X156184415Y-138640330D01*
X155869634Y-138430000D01*
X156184415Y-138219670D01*
X156509271Y-137733489D01*
X156623345Y-137160000D01*
X156509271Y-136586511D01*
X156184415Y-136100330D01*
X155869634Y-135890000D01*
X156184415Y-135679670D01*
X156509271Y-135193489D01*
X156623345Y-134620000D01*
X156509271Y-134046511D01*
X156184415Y-133560330D01*
X155869634Y-133350000D01*
X156184415Y-133139670D01*
X156509271Y-132653489D01*
X156623345Y-132080000D01*
X156509271Y-131506511D01*
X156184415Y-131020330D01*
X156168632Y-131009784D01*
X156198123Y-131004063D01*
X156410927Y-130864273D01*
X156553377Y-130653240D01*
X156603440Y-130403600D01*
X156603440Y-128676400D01*
X156556463Y-128434277D01*
X156416673Y-128221473D01*
X156205640Y-128079023D01*
X155956000Y-128028960D01*
X153924000Y-128028960D01*
X153681877Y-128075937D01*
X153469073Y-128215727D01*
X153326623Y-128426760D01*
X153276560Y-128676400D01*
X153276560Y-130403600D01*
X153323537Y-130645723D01*
X153463327Y-130858527D01*
X153674360Y-131000977D01*
X153712962Y-131008718D01*
X153695585Y-131020330D01*
X153370729Y-131506511D01*
X153256655Y-132080000D01*
X153370729Y-132653489D01*
X153695585Y-133139670D01*
X154010365Y-133350000D01*
X153695585Y-133560330D01*
X153370729Y-134046511D01*
X153256655Y-134620000D01*
X153370729Y-135193489D01*
X153695585Y-135679670D01*
X154010365Y-135890000D01*
X153695585Y-136100330D01*
X153370729Y-136586511D01*
X153256655Y-137160000D01*
X153370729Y-137733489D01*
X153695585Y-138219670D01*
X154010365Y-138430000D01*
X153695585Y-138640330D01*
X153370729Y-139126511D01*
X153256655Y-139700000D01*
X153370729Y-140273489D01*
X153695585Y-140759670D01*
X154010365Y-140970000D01*
X153695585Y-141180330D01*
X153370729Y-141666511D01*
X153256655Y-142240000D01*
X153370729Y-142813489D01*
X153695585Y-143299670D01*
X154010365Y-143510000D01*
X153695585Y-143720330D01*
X153370729Y-144206511D01*
X153256655Y-144780000D01*
X153370729Y-145353489D01*
X153695585Y-145839670D01*
X154010365Y-146050000D01*
X153695585Y-146260330D01*
X153370729Y-146746511D01*
X153256655Y-147320000D01*
X153370729Y-147893489D01*
X153695585Y-148379670D01*
X154010365Y-148590000D01*
X153695585Y-148800330D01*
X153370729Y-149286511D01*
X153256655Y-149860000D01*
X153370729Y-150433489D01*
X153695585Y-150919670D01*
X154010365Y-151130000D01*
X153695585Y-151340330D01*
X153370729Y-151826511D01*
X153256655Y-152400000D01*
X153370729Y-152973489D01*
X153695585Y-153459670D01*
X154010365Y-153670000D01*
X153695585Y-153880330D01*
X153370729Y-154366511D01*
X153256655Y-154940000D01*
X153370729Y-155513489D01*
X153695585Y-155999670D01*
X154010365Y-156210000D01*
X153695585Y-156420330D01*
X153370729Y-156906511D01*
X153256655Y-157480000D01*
X153370729Y-158053489D01*
X153695585Y-158539670D01*
X154010365Y-158750000D01*
X153695585Y-158960330D01*
X153370729Y-159446511D01*
X153256655Y-160020000D01*
X153370729Y-160593489D01*
X153695585Y-161079670D01*
X154010365Y-161290000D01*
X153695585Y-161500330D01*
X153370729Y-161986511D01*
X153256655Y-162560000D01*
X153370729Y-163133489D01*
X153695585Y-163619670D01*
X154181766Y-163944526D01*
X154755255Y-164058600D01*
X155124745Y-164058600D01*
X155698234Y-163944526D01*
X156184415Y-163619670D01*
X156509271Y-163133489D01*
X156623345Y-162560000D01*
X156623345Y-169420000D01*
X155563079Y-169420000D01*
X155494659Y-169351460D01*
X155135370Y-169202270D01*
X154746337Y-169201931D01*
X154386788Y-169350493D01*
X154111460Y-169625341D01*
X153962270Y-169984630D01*
X153961931Y-170373663D01*
X154110493Y-170733212D01*
X154385341Y-171008540D01*
X154744630Y-171157730D01*
X155133663Y-171158069D01*
X155493212Y-171009507D01*
X155562840Y-170940000D01*
X157480000Y-170940000D01*
X157770839Y-170882148D01*
X158017401Y-170717401D01*
X158182148Y-170470839D01*
X158240000Y-170180000D01*
X158240000Y-163320000D01*
X163830000Y-163320000D01*
X164120839Y-163262148D01*
X164367401Y-163097401D01*
X166684802Y-160780000D01*
X169865198Y-160780000D01*
X171742015Y-162656817D01*
X171741931Y-162753663D01*
X171890493Y-163113212D01*
X171960000Y-163182840D01*
X171960000Y-172096920D01*
X171891460Y-172165341D01*
X171742270Y-172524630D01*
X171741931Y-172913663D01*
X171890493Y-173273212D01*
X172165341Y-173548540D01*
X172524630Y-173697730D01*
X172913663Y-173698069D01*
X173273212Y-173549507D01*
X173548540Y-173274659D01*
X173697730Y-172915370D01*
X173698069Y-172526337D01*
X173698069Y-174575000D01*
X170297652Y-174575000D01*
X170297652Y-170905777D01*
X170297652Y-163285777D01*
X170269531Y-162739328D01*
X170114516Y-162365089D01*
X169874567Y-162298278D01*
X169694962Y-162477883D01*
X169694962Y-162118673D01*
X169628151Y-161878724D01*
X169112537Y-161695588D01*
X168566088Y-161723709D01*
X168191849Y-161878724D01*
X168125038Y-162118673D01*
X168910000Y-162903635D01*
X169694962Y-162118673D01*
X169694962Y-162477883D01*
X169089605Y-163083240D01*
X169874567Y-163868202D01*
X170114516Y-163801391D01*
X170297652Y-163285777D01*
X170297652Y-170905777D01*
X170285648Y-170672514D01*
X170285648Y-164812374D01*
X170076696Y-164306671D01*
X169690124Y-163919424D01*
X169478850Y-163831695D01*
X168910000Y-163262845D01*
X168730395Y-163442449D01*
X168730395Y-163083240D01*
X167945433Y-162298278D01*
X167705484Y-162365089D01*
X167522348Y-162880703D01*
X167550469Y-163427152D01*
X167705484Y-163801391D01*
X167945433Y-163868202D01*
X168730395Y-163083240D01*
X168730395Y-163442449D01*
X168341297Y-163831547D01*
X168131911Y-163918064D01*
X167744664Y-164304636D01*
X167534829Y-164809974D01*
X167534352Y-165357146D01*
X167743304Y-165862849D01*
X168129876Y-166250096D01*
X168635214Y-166459931D01*
X169182386Y-166460408D01*
X169688089Y-166251456D01*
X170075336Y-165864884D01*
X170285171Y-165359546D01*
X170285648Y-164812374D01*
X170285648Y-170672514D01*
X170269531Y-170359328D01*
X170114516Y-169985089D01*
X169874567Y-169918278D01*
X169694962Y-170097883D01*
X169694962Y-169738673D01*
X169628151Y-169498724D01*
X169112537Y-169315588D01*
X168566088Y-169343709D01*
X168191849Y-169498724D01*
X168125038Y-169738673D01*
X168910000Y-170523635D01*
X169694962Y-169738673D01*
X169694962Y-170097883D01*
X169089605Y-170703240D01*
X169874567Y-171488202D01*
X170114516Y-171421391D01*
X170297652Y-170905777D01*
X170297652Y-174575000D01*
X170285648Y-174575000D01*
X170285648Y-172432374D01*
X170076696Y-171926671D01*
X169690124Y-171539424D01*
X169478850Y-171451695D01*
X168910000Y-170882845D01*
X168730395Y-171062449D01*
X168730395Y-170703240D01*
X167945433Y-169918278D01*
X167705484Y-169985089D01*
X167522348Y-170500703D01*
X167550469Y-171047152D01*
X167705484Y-171421391D01*
X167945433Y-171488202D01*
X168730395Y-170703240D01*
X168730395Y-171062449D01*
X168341297Y-171451547D01*
X168131911Y-171538064D01*
X167744664Y-171924636D01*
X167534829Y-172429974D01*
X167534352Y-172977146D01*
X167743304Y-173482849D01*
X168129876Y-173870096D01*
X168635214Y-174079931D01*
X169182386Y-174080408D01*
X169688089Y-173871456D01*
X170075336Y-173484884D01*
X170285171Y-172979546D01*
X170285648Y-172432374D01*
X170285648Y-174575000D01*
X163232321Y-174575000D01*
X163232321Y-168910000D01*
X163106646Y-168278190D01*
X162748754Y-167742567D01*
X162595251Y-167640000D01*
X162748754Y-167537433D01*
X163106646Y-167001810D01*
X163232321Y-166370000D01*
X163106646Y-165738190D01*
X162748754Y-165202567D01*
X162213131Y-164844675D01*
X161581321Y-164719000D01*
X160998679Y-164719000D01*
X160366869Y-164844675D01*
X159831246Y-165202567D01*
X159473354Y-165738190D01*
X159347679Y-166370000D01*
X159473354Y-167001810D01*
X159831246Y-167537433D01*
X159984748Y-167640000D01*
X159831246Y-167742567D01*
X159473354Y-168278190D01*
X159347679Y-168910000D01*
X159473354Y-169541810D01*
X159831246Y-170077433D01*
X160005781Y-170194053D01*
X159778764Y-170372370D01*
X159462074Y-170935523D01*
X159430025Y-171067056D01*
X159549164Y-171323000D01*
X161163000Y-171323000D01*
X161163000Y-171303000D01*
X161417000Y-171303000D01*
X161417000Y-171323000D01*
X163030836Y-171323000D01*
X163149975Y-171067056D01*
X163117926Y-170935523D01*
X162801236Y-170372370D01*
X162574218Y-170194053D01*
X162748754Y-170077433D01*
X163106646Y-169541810D01*
X163232321Y-168910000D01*
X163232321Y-174575000D01*
X163149975Y-174575000D01*
X163149975Y-171832944D01*
X163030836Y-171577000D01*
X161417000Y-171577000D01*
X161417000Y-173101000D01*
X161671000Y-173101000D01*
X162293143Y-172926724D01*
X162801236Y-172527630D01*
X163117926Y-171964477D01*
X163149975Y-171832944D01*
X163149975Y-174575000D01*
X161163000Y-174575000D01*
X161163000Y-173101000D01*
X161163000Y-171577000D01*
X159549164Y-171577000D01*
X159430025Y-171832944D01*
X159462074Y-171964477D01*
X159778764Y-172527630D01*
X160286857Y-172926724D01*
X160909000Y-173101000D01*
X161163000Y-173101000D01*
X161163000Y-174575000D01*
X152813345Y-174575000D01*
X152813345Y-172720000D01*
X152699271Y-172146511D01*
X152374415Y-171660330D01*
X152059634Y-171450000D01*
X152374415Y-171239670D01*
X152699271Y-170753489D01*
X152813345Y-170180000D01*
X152699271Y-169606511D01*
X152374415Y-169120330D01*
X152358632Y-169109784D01*
X152388123Y-169104063D01*
X152600927Y-168964273D01*
X152743377Y-168753240D01*
X152793440Y-168503600D01*
X152793440Y-166776400D01*
X152746463Y-166534277D01*
X152715275Y-166486799D01*
X152715275Y-162246107D01*
X152474481Y-161663343D01*
X152101529Y-161289739D01*
X152472914Y-160919003D01*
X152714724Y-160336659D01*
X152715275Y-159706107D01*
X152474481Y-159123343D01*
X152101529Y-158749739D01*
X152472914Y-158379003D01*
X152714724Y-157796659D01*
X152715275Y-157166107D01*
X152474481Y-156583343D01*
X152101529Y-156209739D01*
X152472914Y-155839003D01*
X152714724Y-155256659D01*
X152715275Y-154626107D01*
X152474481Y-154043343D01*
X152101529Y-153669739D01*
X152472914Y-153299003D01*
X152714724Y-152716659D01*
X152715275Y-152086107D01*
X152474481Y-151503343D01*
X152101529Y-151129739D01*
X152472914Y-150759003D01*
X152714724Y-150176659D01*
X152715275Y-149546107D01*
X152474481Y-148963343D01*
X152101529Y-148589739D01*
X152472914Y-148219003D01*
X152714724Y-147636659D01*
X152715275Y-147006107D01*
X152474481Y-146423343D01*
X152101529Y-146049739D01*
X152472914Y-145679003D01*
X152714724Y-145096659D01*
X152715275Y-144466107D01*
X152474481Y-143883343D01*
X152101529Y-143509739D01*
X152472914Y-143139003D01*
X152714724Y-142556659D01*
X152715275Y-141926107D01*
X152474481Y-141343343D01*
X152101529Y-140969739D01*
X152472914Y-140599003D01*
X152714724Y-140016659D01*
X152715275Y-139386107D01*
X152474481Y-138803343D01*
X152101529Y-138429739D01*
X152472914Y-138059003D01*
X152714724Y-137476659D01*
X152715275Y-136846107D01*
X152474481Y-136263343D01*
X152101529Y-135889739D01*
X152472914Y-135519003D01*
X152714724Y-134936659D01*
X152715275Y-134306107D01*
X152474481Y-133723343D01*
X152101529Y-133349739D01*
X152472914Y-132979003D01*
X152714724Y-132396659D01*
X152715275Y-131766107D01*
X152474481Y-131183343D01*
X152101529Y-130809739D01*
X152472914Y-130439003D01*
X152714724Y-129856659D01*
X152715275Y-129226107D01*
X152474481Y-128643343D01*
X152029003Y-128197086D01*
X151446659Y-127955276D01*
X150816107Y-127954725D01*
X150233343Y-128195519D01*
X149787086Y-128640997D01*
X149545276Y-129223341D01*
X149544725Y-129853893D01*
X149785519Y-130436657D01*
X150158470Y-130810260D01*
X149787086Y-131180997D01*
X149545276Y-131763341D01*
X149544725Y-132393893D01*
X149785519Y-132976657D01*
X150158470Y-133350260D01*
X149787086Y-133720997D01*
X149545276Y-134303341D01*
X149544725Y-134933893D01*
X149785519Y-135516657D01*
X150158470Y-135890260D01*
X149787086Y-136260997D01*
X149545276Y-136843341D01*
X149544725Y-137473893D01*
X149785519Y-138056657D01*
X150158470Y-138430260D01*
X149787086Y-138800997D01*
X149545276Y-139383341D01*
X149544725Y-140013893D01*
X149785519Y-140596657D01*
X150158470Y-140970260D01*
X149787086Y-141340997D01*
X149545276Y-141923341D01*
X149544725Y-142553893D01*
X149785519Y-143136657D01*
X150158470Y-143510260D01*
X149787086Y-143880997D01*
X149545276Y-144463341D01*
X149544725Y-145093893D01*
X149785519Y-145676657D01*
X150158470Y-146050260D01*
X149787086Y-146420997D01*
X149545276Y-147003341D01*
X149544725Y-147633893D01*
X149785519Y-148216657D01*
X150158470Y-148590260D01*
X149787086Y-148960997D01*
X149545276Y-149543341D01*
X149544725Y-150173893D01*
X149785519Y-150756657D01*
X150158470Y-151130260D01*
X149787086Y-151500997D01*
X149545276Y-152083341D01*
X149544725Y-152713893D01*
X149785519Y-153296657D01*
X150158470Y-153670260D01*
X149787086Y-154040997D01*
X149545276Y-154623341D01*
X149544725Y-155253893D01*
X149785519Y-155836657D01*
X150158470Y-156210260D01*
X149787086Y-156580997D01*
X149545276Y-157163341D01*
X149544725Y-157793893D01*
X149785519Y-158376657D01*
X150158470Y-158750260D01*
X149787086Y-159120997D01*
X149545276Y-159703341D01*
X149544725Y-160333893D01*
X149785519Y-160916657D01*
X150158470Y-161290260D01*
X149859739Y-161588470D01*
X149489003Y-161217086D01*
X148906659Y-160975276D01*
X148276107Y-160974725D01*
X147693343Y-161215519D01*
X147319739Y-161588470D01*
X146949003Y-161217086D01*
X146366659Y-160975276D01*
X145736107Y-160974725D01*
X145153343Y-161215519D01*
X144779739Y-161588470D01*
X144409003Y-161217086D01*
X143826659Y-160975276D01*
X143196107Y-160974725D01*
X142613343Y-161215519D01*
X142239739Y-161588470D01*
X141869003Y-161217086D01*
X141286659Y-160975276D01*
X140656107Y-160974725D01*
X140073343Y-161215519D01*
X139699739Y-161588470D01*
X139329003Y-161217086D01*
X138746659Y-160975276D01*
X138116107Y-160974725D01*
X137533343Y-161215519D01*
X137486188Y-161262591D01*
X137486188Y-129792602D01*
X137461352Y-129162539D01*
X137268019Y-128695792D01*
X137006350Y-128603255D01*
X136826745Y-128782860D01*
X136826745Y-128423650D01*
X136734208Y-128161981D01*
X136142602Y-127943812D01*
X135512539Y-127968648D01*
X135045792Y-128161981D01*
X134953255Y-128423650D01*
X135890000Y-129360395D01*
X136826745Y-128423650D01*
X136826745Y-128782860D01*
X136069605Y-129540000D01*
X137006350Y-130476745D01*
X137268019Y-130384208D01*
X137486188Y-129792602D01*
X137486188Y-161262591D01*
X137159739Y-161588470D01*
X136861529Y-161289739D01*
X137232914Y-160919003D01*
X137474724Y-160336659D01*
X137475275Y-159706107D01*
X137234481Y-159123343D01*
X136861529Y-158749739D01*
X137232914Y-158379003D01*
X137474724Y-157796659D01*
X137475275Y-157166107D01*
X137234481Y-156583343D01*
X136861529Y-156209739D01*
X137232914Y-155839003D01*
X137474724Y-155256659D01*
X137475275Y-154626107D01*
X137234481Y-154043343D01*
X136861529Y-153669739D01*
X137232914Y-153299003D01*
X137474724Y-152716659D01*
X137475275Y-152086107D01*
X137234481Y-151503343D01*
X136861529Y-151129739D01*
X137232914Y-150759003D01*
X137474724Y-150176659D01*
X137475275Y-149546107D01*
X137234481Y-148963343D01*
X136861529Y-148589739D01*
X137232914Y-148219003D01*
X137474724Y-147636659D01*
X137475275Y-147006107D01*
X137234481Y-146423343D01*
X136861529Y-146049739D01*
X137232914Y-145679003D01*
X137474724Y-145096659D01*
X137475275Y-144466107D01*
X137234481Y-143883343D01*
X136861529Y-143509739D01*
X137232914Y-143139003D01*
X137474724Y-142556659D01*
X137475275Y-141926107D01*
X137234481Y-141343343D01*
X136861529Y-140969739D01*
X137232914Y-140599003D01*
X137474724Y-140016659D01*
X137475275Y-139386107D01*
X137234481Y-138803343D01*
X136861529Y-138429739D01*
X137232914Y-138059003D01*
X137474724Y-137476659D01*
X137475275Y-136846107D01*
X137234481Y-136263343D01*
X136861529Y-135889739D01*
X137232914Y-135519003D01*
X137474724Y-134936659D01*
X137475275Y-134306107D01*
X137234481Y-133723343D01*
X136861529Y-133349739D01*
X137232914Y-132979003D01*
X137474724Y-132396659D01*
X137475275Y-131766107D01*
X137234481Y-131183343D01*
X136795789Y-130743884D01*
X136826745Y-130656350D01*
X135890000Y-129719605D01*
X135710395Y-129899210D01*
X135710395Y-129540000D01*
X134773650Y-128603255D01*
X134511981Y-128695792D01*
X134293812Y-129287398D01*
X134318648Y-129917461D01*
X134511981Y-130384208D01*
X134773650Y-130476745D01*
X135710395Y-129540000D01*
X135710395Y-129899210D01*
X134953255Y-130656350D01*
X134984407Y-130744439D01*
X134547086Y-131180997D01*
X134305276Y-131763341D01*
X134304725Y-132393893D01*
X134545519Y-132976657D01*
X134918470Y-133350260D01*
X134547086Y-133720997D01*
X134305276Y-134303341D01*
X134304725Y-134933893D01*
X134545519Y-135516657D01*
X134918470Y-135890260D01*
X134547086Y-136260997D01*
X134305276Y-136843341D01*
X134304725Y-137473893D01*
X134545519Y-138056657D01*
X134918470Y-138430260D01*
X134547086Y-138800997D01*
X134305276Y-139383341D01*
X134304725Y-140013893D01*
X134545519Y-140596657D01*
X134918470Y-140970260D01*
X134547086Y-141340997D01*
X134305276Y-141923341D01*
X134304725Y-142553893D01*
X134545519Y-143136657D01*
X134918470Y-143510260D01*
X134547086Y-143880997D01*
X134305276Y-144463341D01*
X134304725Y-145093893D01*
X134545519Y-145676657D01*
X134918470Y-146050260D01*
X134547086Y-146420997D01*
X134305276Y-147003341D01*
X134304725Y-147633893D01*
X134545519Y-148216657D01*
X134918470Y-148590260D01*
X134547086Y-148960997D01*
X134305276Y-149543341D01*
X134304725Y-150173893D01*
X134545519Y-150756657D01*
X134918470Y-151130260D01*
X134547086Y-151500997D01*
X134305276Y-152083341D01*
X134304725Y-152713893D01*
X134545519Y-153296657D01*
X134918470Y-153670260D01*
X134547086Y-154040997D01*
X134305276Y-154623341D01*
X134304725Y-155253893D01*
X134545519Y-155836657D01*
X134918470Y-156210260D01*
X134547086Y-156580997D01*
X134305276Y-157163341D01*
X134304725Y-157793893D01*
X134545519Y-158376657D01*
X134918470Y-158750260D01*
X134547086Y-159120997D01*
X134305276Y-159703341D01*
X134304725Y-160333893D01*
X134545519Y-160916657D01*
X134918470Y-161290260D01*
X134547086Y-161660997D01*
X134489366Y-161800000D01*
X133524648Y-161800000D01*
X133324415Y-161500330D01*
X133009634Y-161290000D01*
X133324415Y-161079670D01*
X133649271Y-160593489D01*
X133763345Y-160020000D01*
X133649271Y-159446511D01*
X133324415Y-158960330D01*
X133009634Y-158750000D01*
X133324415Y-158539670D01*
X133649271Y-158053489D01*
X133763345Y-157480000D01*
X133649271Y-156906511D01*
X133324415Y-156420330D01*
X133009634Y-156210000D01*
X133324415Y-155999670D01*
X133649271Y-155513489D01*
X133763345Y-154940000D01*
X133649271Y-154366511D01*
X133324415Y-153880330D01*
X133009634Y-153670000D01*
X133324415Y-153459670D01*
X133649271Y-152973489D01*
X133763345Y-152400000D01*
X133649271Y-151826511D01*
X133324415Y-151340330D01*
X133009634Y-151130000D01*
X133324415Y-150919670D01*
X133649271Y-150433489D01*
X133763345Y-149860000D01*
X133649271Y-149286511D01*
X133324415Y-148800330D01*
X133009634Y-148590000D01*
X133324415Y-148379670D01*
X133649271Y-147893489D01*
X133763345Y-147320000D01*
X133649271Y-146746511D01*
X133324415Y-146260330D01*
X133009634Y-146050000D01*
X133324415Y-145839670D01*
X133649271Y-145353489D01*
X133763345Y-144780000D01*
X133649271Y-144206511D01*
X133324415Y-143720330D01*
X133009634Y-143510000D01*
X133324415Y-143299670D01*
X133649271Y-142813489D01*
X133763345Y-142240000D01*
X133649271Y-141666511D01*
X133324415Y-141180330D01*
X133009634Y-140970000D01*
X133324415Y-140759670D01*
X133649271Y-140273489D01*
X133763345Y-139700000D01*
X133649271Y-139126511D01*
X133324415Y-138640330D01*
X133009634Y-138430000D01*
X133324415Y-138219670D01*
X133649271Y-137733489D01*
X133763345Y-137160000D01*
X133649271Y-136586511D01*
X133324415Y-136100330D01*
X133009634Y-135890000D01*
X133324415Y-135679670D01*
X133649271Y-135193489D01*
X133763345Y-134620000D01*
X133649271Y-134046511D01*
X133324415Y-133560330D01*
X133009634Y-133350000D01*
X133324415Y-133139670D01*
X133649271Y-132653489D01*
X133763345Y-132080000D01*
X133649271Y-131506511D01*
X133324415Y-131020330D01*
X133302219Y-131005499D01*
X133455698Y-130941927D01*
X133634327Y-130763299D01*
X133731000Y-130529910D01*
X133731000Y-130277291D01*
X133731000Y-129825750D01*
X133731000Y-129254250D01*
X133731000Y-128802709D01*
X133731000Y-128550090D01*
X133634327Y-128316701D01*
X133455698Y-128138073D01*
X133222309Y-128041400D01*
X132365750Y-128041400D01*
X132207000Y-128200150D01*
X132207000Y-129413000D01*
X133572250Y-129413000D01*
X133731000Y-129254250D01*
X133731000Y-129825750D01*
X133572250Y-129667000D01*
X132207000Y-129667000D01*
X132207000Y-129687000D01*
X131953000Y-129687000D01*
X131953000Y-129667000D01*
X131953000Y-129413000D01*
X131953000Y-128200150D01*
X131794250Y-128041400D01*
X130937691Y-128041400D01*
X130704302Y-128138073D01*
X130525673Y-128316701D01*
X130429000Y-128550090D01*
X130429000Y-128802709D01*
X130429000Y-129254250D01*
X130587750Y-129413000D01*
X131953000Y-129413000D01*
X131953000Y-129667000D01*
X130587750Y-129667000D01*
X130429000Y-129825750D01*
X130429000Y-130277291D01*
X130429000Y-130529910D01*
X130525673Y-130763299D01*
X130704302Y-130941927D01*
X130857780Y-131005499D01*
X130835585Y-131020330D01*
X130510729Y-131506511D01*
X130396655Y-132080000D01*
X130510729Y-132653489D01*
X130835585Y-133139670D01*
X131150365Y-133350000D01*
X130835585Y-133560330D01*
X130510729Y-134046511D01*
X130396655Y-134620000D01*
X130510729Y-135193489D01*
X130835585Y-135679670D01*
X131150365Y-135890000D01*
X130835585Y-136100330D01*
X130510729Y-136586511D01*
X130396655Y-137160000D01*
X130510729Y-137733489D01*
X130835585Y-138219670D01*
X131150365Y-138430000D01*
X130835585Y-138640330D01*
X130510729Y-139126511D01*
X130396655Y-139700000D01*
X130510729Y-140273489D01*
X130835585Y-140759670D01*
X131150365Y-140970000D01*
X130835585Y-141180330D01*
X130510729Y-141666511D01*
X130396655Y-142240000D01*
X130510729Y-142813489D01*
X130835585Y-143299670D01*
X131150365Y-143510000D01*
X130835585Y-143720330D01*
X130510729Y-144206511D01*
X130396655Y-144780000D01*
X130510729Y-145353489D01*
X130835585Y-145839670D01*
X131150365Y-146050000D01*
X130835585Y-146260330D01*
X130510729Y-146746511D01*
X130396655Y-147320000D01*
X130510729Y-147893489D01*
X130835585Y-148379670D01*
X131150365Y-148590000D01*
X130835585Y-148800330D01*
X130510729Y-149286511D01*
X130396655Y-149860000D01*
X130510729Y-150433489D01*
X130835585Y-150919670D01*
X131150365Y-151130000D01*
X130835585Y-151340330D01*
X130510729Y-151826511D01*
X130396655Y-152400000D01*
X130510729Y-152973489D01*
X130835585Y-153459670D01*
X131150365Y-153670000D01*
X130835585Y-153880330D01*
X130510729Y-154366511D01*
X130396655Y-154940000D01*
X130510729Y-155513489D01*
X130835585Y-155999670D01*
X131150365Y-156210000D01*
X130835585Y-156420330D01*
X130510729Y-156906511D01*
X130396655Y-157480000D01*
X130510729Y-158053489D01*
X130835585Y-158539670D01*
X131150365Y-158750000D01*
X130835585Y-158960330D01*
X130510729Y-159446511D01*
X130396655Y-160020000D01*
X130510729Y-160593489D01*
X130835585Y-161079670D01*
X131150365Y-161290000D01*
X130835585Y-161500330D01*
X130510729Y-161986511D01*
X130396655Y-162560000D01*
X130510729Y-163133489D01*
X130835585Y-163619670D01*
X131321766Y-163944526D01*
X131895255Y-164058600D01*
X132264745Y-164058600D01*
X132838234Y-163944526D01*
X133324415Y-163619670D01*
X133524648Y-163320000D01*
X134489053Y-163320000D01*
X134545519Y-163456657D01*
X134990997Y-163902914D01*
X135573341Y-164144724D01*
X136203893Y-164145275D01*
X136786657Y-163904481D01*
X137160260Y-163531529D01*
X137530997Y-163902914D01*
X138113341Y-164144724D01*
X138743893Y-164145275D01*
X139326657Y-163904481D01*
X139700260Y-163531529D01*
X140070997Y-163902914D01*
X140653341Y-164144724D01*
X141283893Y-164145275D01*
X141866657Y-163904481D01*
X142240260Y-163531529D01*
X142610997Y-163902914D01*
X143193341Y-164144724D01*
X143823893Y-164145275D01*
X144406657Y-163904481D01*
X144780260Y-163531529D01*
X145150997Y-163902914D01*
X145733341Y-164144724D01*
X146363893Y-164145275D01*
X146946657Y-163904481D01*
X147320260Y-163531529D01*
X147690997Y-163902914D01*
X148273341Y-164144724D01*
X148903893Y-164145275D01*
X149486657Y-163904481D01*
X149860260Y-163531529D01*
X150230997Y-163902914D01*
X150813341Y-164144724D01*
X151443893Y-164145275D01*
X152026657Y-163904481D01*
X152472914Y-163459003D01*
X152714724Y-162876659D01*
X152715275Y-162246107D01*
X152715275Y-166486799D01*
X152606673Y-166321473D01*
X152395640Y-166179023D01*
X152146000Y-166128960D01*
X150114000Y-166128960D01*
X149871877Y-166175937D01*
X149659073Y-166315727D01*
X149516623Y-166526760D01*
X149466560Y-166776400D01*
X149466560Y-168503600D01*
X149513537Y-168745723D01*
X149653327Y-168958527D01*
X149864360Y-169100977D01*
X149902962Y-169108718D01*
X149885585Y-169120330D01*
X149560729Y-169606511D01*
X149446655Y-170180000D01*
X149560729Y-170753489D01*
X149885585Y-171239670D01*
X150200365Y-171450000D01*
X149885585Y-171660330D01*
X149560729Y-172146511D01*
X149446655Y-172720000D01*
X149560729Y-173293489D01*
X149885585Y-173779670D01*
X150371766Y-174104526D01*
X150945255Y-174218600D01*
X151314745Y-174218600D01*
X151888234Y-174104526D01*
X152374415Y-173779670D01*
X152699271Y-173293489D01*
X152813345Y-172720000D01*
X152813345Y-174575000D01*
X146443440Y-174575000D01*
X146443440Y-171196000D01*
X146443440Y-169164000D01*
X146396463Y-168921877D01*
X146256673Y-168709073D01*
X146045640Y-168566623D01*
X145796000Y-168516560D01*
X143764000Y-168516560D01*
X143521877Y-168563537D01*
X143309073Y-168703327D01*
X143166623Y-168914360D01*
X143116560Y-169164000D01*
X143116560Y-171196000D01*
X143163537Y-171438123D01*
X143303327Y-171650927D01*
X143463043Y-171758737D01*
X143373615Y-171855182D01*
X143174025Y-172337056D01*
X143293164Y-172593000D01*
X144653000Y-172593000D01*
X144653000Y-172573000D01*
X144907000Y-172573000D01*
X144907000Y-172593000D01*
X146266836Y-172593000D01*
X146385975Y-172337056D01*
X146186385Y-171855182D01*
X146096425Y-171758164D01*
X146250927Y-171656673D01*
X146393377Y-171445640D01*
X146443440Y-171196000D01*
X146443440Y-174575000D01*
X146385975Y-174575000D01*
X146385975Y-173102944D01*
X146266836Y-172847000D01*
X144907000Y-172847000D01*
X144907000Y-174207367D01*
X145162946Y-174325983D01*
X145748379Y-174057188D01*
X146186385Y-173584818D01*
X146385975Y-173102944D01*
X146385975Y-174575000D01*
X144653000Y-174575000D01*
X144653000Y-174207367D01*
X144653000Y-172847000D01*
X143293164Y-172847000D01*
X143174025Y-173102944D01*
X143373615Y-173584818D01*
X143811621Y-174057188D01*
X144397054Y-174325983D01*
X144653000Y-174207367D01*
X144653000Y-174575000D01*
X139775927Y-174575000D01*
X139775927Y-172912520D01*
X139747148Y-172382801D01*
X139599800Y-172027071D01*
X139364188Y-171965417D01*
X139184583Y-172145022D01*
X139184583Y-171785812D01*
X139122929Y-171550200D01*
X138622520Y-171374073D01*
X138092801Y-171402852D01*
X137737071Y-171550200D01*
X137675417Y-171785812D01*
X138430000Y-172540395D01*
X139184583Y-171785812D01*
X139184583Y-172145022D01*
X138609605Y-172720000D01*
X139364188Y-173474583D01*
X139599800Y-173412929D01*
X139775927Y-172912520D01*
X139775927Y-174575000D01*
X139184583Y-174575000D01*
X139184583Y-173654188D01*
X138430000Y-172899605D01*
X138250395Y-173079210D01*
X138250395Y-172720000D01*
X137495812Y-171965417D01*
X137260200Y-172027071D01*
X137084073Y-172527480D01*
X137112852Y-173057199D01*
X137260200Y-173412929D01*
X137495812Y-173474583D01*
X138250395Y-172720000D01*
X138250395Y-173079210D01*
X137675417Y-173654188D01*
X137737071Y-173889800D01*
X138237480Y-174065927D01*
X138767199Y-174037148D01*
X139122929Y-173889800D01*
X139184583Y-173654188D01*
X139184583Y-174575000D01*
X132155927Y-174575000D01*
X132155927Y-172912520D01*
X132127148Y-172382801D01*
X131979800Y-172027071D01*
X131744188Y-171965417D01*
X130989605Y-172720000D01*
X131744188Y-173474583D01*
X131979800Y-173412929D01*
X132155927Y-172912520D01*
X132155927Y-174575000D01*
X130225000Y-174575000D01*
X130225000Y-173927787D01*
X130617480Y-174065927D01*
X131147199Y-174037148D01*
X131502929Y-173889800D01*
X131564583Y-173654188D01*
X130810000Y-172899605D01*
X130795857Y-172913747D01*
X130616252Y-172734142D01*
X130630395Y-172720000D01*
X130616252Y-172705857D01*
X130795857Y-172526252D01*
X130810000Y-172540395D01*
X131564583Y-171785812D01*
X131502929Y-171550200D01*
X131002520Y-171374073D01*
X130472801Y-171402852D01*
X130225000Y-171505494D01*
X130225000Y-168840979D01*
X130543587Y-168973268D01*
X131074086Y-168973731D01*
X131564380Y-168771146D01*
X131936173Y-168400000D01*
X137304464Y-168400000D01*
X137673647Y-168769827D01*
X138163587Y-168973268D01*
X138694086Y-168973731D01*
X139184380Y-168771146D01*
X139559827Y-168396353D01*
X139763268Y-167906413D01*
X139763731Y-167375914D01*
X139561146Y-166885620D01*
X139186353Y-166510173D01*
X138696413Y-166306732D01*
X138165914Y-166306269D01*
X137675620Y-166508854D01*
X137303826Y-166880000D01*
X131935535Y-166880000D01*
X131566353Y-166510173D01*
X131076413Y-166306732D01*
X130545914Y-166306269D01*
X130225000Y-166438867D01*
X130225000Y-126161000D01*
X197435000Y-126161000D01*
X197435000Y-174575000D01*
X197435000Y-174575000D01*
G37*
X197435000Y-174575000D02*
X197263345Y-174575000D01*
X197263345Y-154940000D01*
X197149271Y-154366511D01*
X196824415Y-153880330D01*
X196509634Y-153670000D01*
X196824415Y-153459670D01*
X197149271Y-152973489D01*
X197263345Y-152400000D01*
X197149271Y-151826511D01*
X196824415Y-151340330D01*
X196509634Y-151130000D01*
X196824415Y-150919670D01*
X197149271Y-150433489D01*
X197263345Y-149860000D01*
X197149271Y-149286511D01*
X196824415Y-148800330D01*
X196509634Y-148590000D01*
X196824415Y-148379670D01*
X197149271Y-147893489D01*
X197263345Y-147320000D01*
X197149271Y-146746511D01*
X196824415Y-146260330D01*
X196509634Y-146050000D01*
X196824415Y-145839670D01*
X197149271Y-145353489D01*
X197263345Y-144780000D01*
X197149271Y-144206511D01*
X196824415Y-143720330D01*
X196509634Y-143510000D01*
X196824415Y-143299670D01*
X197149271Y-142813489D01*
X197263345Y-142240000D01*
X197149271Y-141666511D01*
X196824415Y-141180330D01*
X196509634Y-140970000D01*
X196824415Y-140759670D01*
X197149271Y-140273489D01*
X197263345Y-139700000D01*
X197149271Y-139126511D01*
X196824415Y-138640330D01*
X196509634Y-138430000D01*
X196824415Y-138219670D01*
X197149271Y-137733489D01*
X197263345Y-137160000D01*
X197149271Y-136586511D01*
X196824415Y-136100330D01*
X196509634Y-135890000D01*
X196824415Y-135679670D01*
X197149271Y-135193489D01*
X197263345Y-134620000D01*
X197149271Y-134046511D01*
X196824415Y-133560330D01*
X196808632Y-133549784D01*
X196838123Y-133544063D01*
X197050927Y-133404273D01*
X197193377Y-133193240D01*
X197243440Y-132943600D01*
X197243440Y-131216400D01*
X197196463Y-130974277D01*
X197056673Y-130761473D01*
X196845640Y-130619023D01*
X196596000Y-130568960D01*
X194564000Y-130568960D01*
X194321877Y-130615937D01*
X194109073Y-130755727D01*
X193966623Y-130966760D01*
X193916560Y-131216400D01*
X193916560Y-132943600D01*
X193963537Y-133185723D01*
X194103327Y-133398527D01*
X194314360Y-133540977D01*
X194352962Y-133548718D01*
X194335585Y-133560330D01*
X194010729Y-134046511D01*
X193896655Y-134620000D01*
X194010729Y-135193489D01*
X194335585Y-135679670D01*
X194650365Y-135890000D01*
X194335585Y-136100330D01*
X194010729Y-136586511D01*
X193896655Y-137160000D01*
X194010729Y-137733489D01*
X194335585Y-138219670D01*
X194650365Y-138430000D01*
X194335585Y-138640330D01*
X194010729Y-139126511D01*
X193896655Y-139700000D01*
X194010729Y-140273489D01*
X194335585Y-140759670D01*
X194650365Y-140970000D01*
X194335585Y-141180330D01*
X194010729Y-141666511D01*
X193896655Y-142240000D01*
X194010729Y-142813489D01*
X194335585Y-143299670D01*
X194650365Y-143510000D01*
X194335585Y-143720330D01*
X194010729Y-144206511D01*
X193896655Y-144780000D01*
X194010729Y-145353489D01*
X194335585Y-145839670D01*
X194650365Y-146050000D01*
X194335585Y-146260330D01*
X194271855Y-146355708D01*
X194272069Y-146110337D01*
X194123507Y-145750788D01*
X193848659Y-145475460D01*
X193489370Y-145326270D01*
X193100337Y-145325931D01*
X192740788Y-145474493D01*
X192736792Y-145478481D01*
X192737242Y-144963339D01*
X192525010Y-144449697D01*
X192315657Y-144239978D01*
X192523629Y-144032370D01*
X192736757Y-143519100D01*
X192737242Y-142963339D01*
X192525010Y-142449697D01*
X192315657Y-142239978D01*
X192523629Y-142032370D01*
X192736757Y-141519100D01*
X192737242Y-140963339D01*
X192525010Y-140449697D01*
X192315657Y-140239978D01*
X192523629Y-140032370D01*
X192736757Y-139519100D01*
X192737242Y-138963339D01*
X192525010Y-138449697D01*
X192315657Y-138239978D01*
X192523629Y-138032370D01*
X192736757Y-137519100D01*
X192737242Y-136963339D01*
X192525010Y-136449697D01*
X192315657Y-136239978D01*
X192523629Y-136032370D01*
X192736757Y-135519100D01*
X192737242Y-134963339D01*
X192525010Y-134449697D01*
X192132370Y-134056371D01*
X191619100Y-133843243D01*
X191063339Y-133842758D01*
X190549697Y-134054990D01*
X190156371Y-134447630D01*
X189943243Y-134960900D01*
X189942758Y-135516661D01*
X190154990Y-136030303D01*
X190364342Y-136240021D01*
X190156371Y-136447630D01*
X189943243Y-136960900D01*
X189942758Y-137516661D01*
X190154990Y-138030303D01*
X190364342Y-138240021D01*
X190156371Y-138447630D01*
X189943243Y-138960900D01*
X189942758Y-139516661D01*
X190154990Y-140030303D01*
X190364342Y-140240021D01*
X190156371Y-140447630D01*
X189943243Y-140960900D01*
X189942758Y-141516661D01*
X190154990Y-142030303D01*
X190364342Y-142240021D01*
X190156371Y-142447630D01*
X189943243Y-142960900D01*
X189942758Y-143516661D01*
X190154990Y-144030303D01*
X190364342Y-144240021D01*
X190156371Y-144447630D01*
X189943243Y-144960900D01*
X189942758Y-145516661D01*
X190154990Y-146030303D01*
X190364342Y-146240021D01*
X190156371Y-146447630D01*
X189943243Y-146960900D01*
X189942758Y-147516661D01*
X190154990Y-148030303D01*
X190364342Y-148240021D01*
X190156371Y-148447630D01*
X189943243Y-148960900D01*
X189942758Y-149516661D01*
X190154990Y-150030303D01*
X190364342Y-150240021D01*
X190156371Y-150447630D01*
X189943243Y-150960900D01*
X189942758Y-151516661D01*
X190154990Y-152030303D01*
X190364342Y-152240021D01*
X190156371Y-152447630D01*
X189943243Y-152960900D01*
X189942758Y-153516661D01*
X190154990Y-154030303D01*
X190547630Y-154423629D01*
X191060900Y-154636757D01*
X191616661Y-154637242D01*
X192130303Y-154425010D01*
X192523629Y-154032370D01*
X192532000Y-154012210D01*
X192532000Y-154572917D01*
X192465460Y-154639341D01*
X192316270Y-154998630D01*
X192315931Y-155387663D01*
X192464493Y-155747212D01*
X192739341Y-156022540D01*
X193098630Y-156171730D01*
X193487663Y-156172069D01*
X193847212Y-156023507D01*
X194122540Y-155748659D01*
X194139911Y-155706824D01*
X194335585Y-155999670D01*
X194821766Y-156324526D01*
X195395255Y-156438600D01*
X195764745Y-156438600D01*
X196338234Y-156324526D01*
X196824415Y-155999670D01*
X197149271Y-155513489D01*
X197263345Y-154940000D01*
X197263345Y-174575000D01*
X195986400Y-174575000D01*
X195986400Y-172056370D01*
X195986400Y-171803751D01*
X195986400Y-170465750D01*
X195986400Y-169894250D01*
X195986400Y-168556249D01*
X195986400Y-168303630D01*
X195889727Y-168070241D01*
X195711098Y-167891613D01*
X195477709Y-167794940D01*
X193887090Y-167794940D01*
X193728340Y-167953690D01*
X193728340Y-170053000D01*
X195827650Y-170053000D01*
X195986400Y-169894250D01*
X195986400Y-170465750D01*
X195827650Y-170307000D01*
X193728340Y-170307000D01*
X193728340Y-172406310D01*
X193887090Y-172565060D01*
X195477709Y-172565060D01*
X195711098Y-172468387D01*
X195889727Y-172289759D01*
X195986400Y-172056370D01*
X195986400Y-174575000D01*
X193474340Y-174575000D01*
X193474340Y-172406310D01*
X193474340Y-170307000D01*
X193474340Y-170053000D01*
X193474340Y-167953690D01*
X193315590Y-167794940D01*
X192649473Y-167794940D01*
X192806587Y-167691733D01*
X192949037Y-167480700D01*
X192999100Y-167231060D01*
X192999100Y-163730940D01*
X192952123Y-163488817D01*
X192812333Y-163276013D01*
X192601300Y-163133563D01*
X192351660Y-163083500D01*
X188851540Y-163083500D01*
X188609417Y-163130477D01*
X188396613Y-163270267D01*
X188324774Y-163376693D01*
X188324774Y-162233766D01*
X188076462Y-161632805D01*
X187617073Y-161172614D01*
X187016547Y-160923254D01*
X186366306Y-160922686D01*
X185765345Y-161170998D01*
X185305154Y-161630387D01*
X185055794Y-162230913D01*
X185055226Y-162881154D01*
X185303538Y-163482115D01*
X185762927Y-163942306D01*
X186363453Y-164191666D01*
X187013694Y-164192234D01*
X187614655Y-163943922D01*
X188074846Y-163484533D01*
X188324206Y-162884007D01*
X188324774Y-162233766D01*
X188324774Y-163376693D01*
X188254163Y-163481300D01*
X188204100Y-163730940D01*
X188204100Y-167231060D01*
X188251077Y-167473183D01*
X188390867Y-167685987D01*
X188533846Y-167782500D01*
X185851800Y-167782500D01*
X185609677Y-167829477D01*
X185396873Y-167969267D01*
X185254423Y-168180300D01*
X185204360Y-168429940D01*
X185204360Y-171930060D01*
X185251337Y-172172183D01*
X185391127Y-172384987D01*
X185602160Y-172527437D01*
X185851800Y-172577500D01*
X189351920Y-172577500D01*
X189594043Y-172530523D01*
X189806847Y-172390733D01*
X189949297Y-172179700D01*
X189999360Y-171930060D01*
X189999360Y-168429940D01*
X189952383Y-168187817D01*
X189812593Y-167975013D01*
X189669613Y-167878500D01*
X191523239Y-167878500D01*
X191491582Y-167891613D01*
X191312953Y-168070241D01*
X191216280Y-168303630D01*
X191216280Y-168556249D01*
X191216280Y-169894250D01*
X191375030Y-170053000D01*
X193474340Y-170053000D01*
X193474340Y-170307000D01*
X191375030Y-170307000D01*
X191216280Y-170465750D01*
X191216280Y-171803751D01*
X191216280Y-172056370D01*
X191312953Y-172289759D01*
X191491582Y-172468387D01*
X191724971Y-172565060D01*
X193315590Y-172565060D01*
X193474340Y-172406310D01*
X193474340Y-174575000D01*
X178176930Y-174575000D01*
X178176930Y-163556950D01*
X178176930Y-161557970D01*
X178129953Y-161315847D01*
X177990163Y-161103043D01*
X177779130Y-160960593D01*
X177529490Y-160910530D01*
X175530510Y-160910530D01*
X175288387Y-160957507D01*
X175075583Y-161097297D01*
X174933133Y-161308330D01*
X174883070Y-161557970D01*
X174883070Y-163556950D01*
X174930047Y-163799073D01*
X175069837Y-164011877D01*
X175280870Y-164154327D01*
X175530510Y-164204390D01*
X177529490Y-164204390D01*
X177771613Y-164157413D01*
X177984417Y-164017623D01*
X178126867Y-163806590D01*
X178176930Y-163556950D01*
X178176930Y-174575000D01*
X173698069Y-174575000D01*
X173698069Y-172526337D01*
X173549507Y-172166788D01*
X173480000Y-172097159D01*
X173480000Y-163183079D01*
X173548540Y-163114659D01*
X173697730Y-162755370D01*
X173698069Y-162366337D01*
X173549507Y-162006788D01*
X173274659Y-161731460D01*
X172915370Y-161582270D01*
X172816986Y-161582184D01*
X172043795Y-160808993D01*
X172278540Y-160574659D01*
X172427730Y-160215370D01*
X172428069Y-159826337D01*
X172279507Y-159466788D01*
X172210000Y-159397159D01*
X172210000Y-135890000D01*
X172152148Y-135599161D01*
X171987401Y-135352599D01*
X171337401Y-134702599D01*
X171090839Y-134537852D01*
X170800000Y-134480000D01*
X170537530Y-134480000D01*
X170525010Y-134449697D01*
X170132370Y-134056371D01*
X169619100Y-133843243D01*
X169063339Y-133842758D01*
X168549697Y-134054990D01*
X168156371Y-134447630D01*
X167943243Y-134960900D01*
X167942758Y-135516661D01*
X168154990Y-136030303D01*
X168364342Y-136240021D01*
X168156371Y-136447630D01*
X167943243Y-136960900D01*
X167942758Y-137516661D01*
X168154990Y-138030303D01*
X168364342Y-138240021D01*
X168156371Y-138447630D01*
X167943243Y-138960900D01*
X167942758Y-139516661D01*
X168154990Y-140030303D01*
X168364342Y-140240021D01*
X168156371Y-140447630D01*
X167943243Y-140960900D01*
X167942758Y-141516661D01*
X168154990Y-142030303D01*
X168364342Y-142240021D01*
X168156371Y-142447630D01*
X167943243Y-142960900D01*
X167942758Y-143516661D01*
X168154990Y-144030303D01*
X168364342Y-144240021D01*
X168156371Y-144447630D01*
X167943243Y-144960900D01*
X167942758Y-145516661D01*
X168154990Y-146030303D01*
X168364342Y-146240021D01*
X168156371Y-146447630D01*
X167943243Y-146960900D01*
X167942758Y-147516661D01*
X168154990Y-148030303D01*
X168364342Y-148240021D01*
X168156371Y-148447630D01*
X167943243Y-148960900D01*
X167942758Y-149516661D01*
X168154990Y-150030303D01*
X168364342Y-150240021D01*
X168156371Y-150447630D01*
X167943243Y-150960900D01*
X167942758Y-151516661D01*
X168154990Y-152030303D01*
X168547630Y-152423629D01*
X168813726Y-152534121D01*
X169340000Y-153060395D01*
X169866302Y-152534092D01*
X170130303Y-152425010D01*
X170523629Y-152032370D01*
X170690000Y-151631703D01*
X170690000Y-152816917D01*
X170562397Y-152508857D01*
X170320213Y-152439392D01*
X169519605Y-153240000D01*
X170320213Y-154040608D01*
X170562397Y-153971143D01*
X170690000Y-153613476D01*
X170690000Y-159396920D01*
X170649572Y-159437277D01*
X170470839Y-159317852D01*
X170180000Y-159260000D01*
X170140608Y-159260000D01*
X170140608Y-154220213D01*
X169340000Y-153419605D01*
X169160395Y-153599210D01*
X169160395Y-153240000D01*
X168359787Y-152439392D01*
X168117603Y-152508857D01*
X167930856Y-153032302D01*
X167958638Y-153587368D01*
X168117603Y-153971143D01*
X168359787Y-154040608D01*
X169160395Y-153240000D01*
X169160395Y-153599210D01*
X168539392Y-154220213D01*
X168608857Y-154462397D01*
X169132302Y-154649144D01*
X169687368Y-154621362D01*
X170071143Y-154462397D01*
X170140608Y-154220213D01*
X170140608Y-159260000D01*
X166783345Y-159260000D01*
X166783345Y-152400000D01*
X166669271Y-151826511D01*
X166344415Y-151340330D01*
X166029634Y-151130000D01*
X166344415Y-150919670D01*
X166669271Y-150433489D01*
X166783345Y-149860000D01*
X166669271Y-149286511D01*
X166344415Y-148800330D01*
X166029634Y-148590000D01*
X166344415Y-148379670D01*
X166669271Y-147893489D01*
X166783345Y-147320000D01*
X166669271Y-146746511D01*
X166344415Y-146260330D01*
X166029634Y-146050000D01*
X166344415Y-145839670D01*
X166669271Y-145353489D01*
X166783345Y-144780000D01*
X166669271Y-144206511D01*
X166344415Y-143720330D01*
X166029634Y-143510000D01*
X166344415Y-143299670D01*
X166669271Y-142813489D01*
X166783345Y-142240000D01*
X166669271Y-141666511D01*
X166344415Y-141180330D01*
X166029634Y-140970000D01*
X166344415Y-140759670D01*
X166669271Y-140273489D01*
X166783345Y-139700000D01*
X166669271Y-139126511D01*
X166344415Y-138640330D01*
X166029634Y-138430000D01*
X166344415Y-138219670D01*
X166669271Y-137733489D01*
X166783345Y-137160000D01*
X166669271Y-136586511D01*
X166344415Y-136100330D01*
X166029634Y-135890000D01*
X166344415Y-135679670D01*
X166669271Y-135193489D01*
X166783345Y-134620000D01*
X166669271Y-134046511D01*
X166344415Y-133560330D01*
X166328632Y-133549784D01*
X166358123Y-133544063D01*
X166570927Y-133404273D01*
X166713377Y-133193240D01*
X166763440Y-132943600D01*
X166763440Y-131216400D01*
X166716463Y-130974277D01*
X166576673Y-130761473D01*
X166365640Y-130619023D01*
X166116000Y-130568960D01*
X164084000Y-130568960D01*
X163841877Y-130615937D01*
X163629073Y-130755727D01*
X163486623Y-130966760D01*
X163436560Y-131216400D01*
X163436560Y-132943600D01*
X163483537Y-133185723D01*
X163623327Y-133398527D01*
X163834360Y-133540977D01*
X163872962Y-133548718D01*
X163855585Y-133560330D01*
X163530729Y-134046511D01*
X163416655Y-134620000D01*
X163530729Y-135193489D01*
X163855585Y-135679670D01*
X164170365Y-135890000D01*
X163855585Y-136100330D01*
X163530729Y-136586511D01*
X163416655Y-137160000D01*
X163530729Y-137733489D01*
X163855585Y-138219670D01*
X164170365Y-138430000D01*
X163855585Y-138640330D01*
X163530729Y-139126511D01*
X163416655Y-139700000D01*
X163530729Y-140273489D01*
X163855585Y-140759670D01*
X164170365Y-140970000D01*
X163855585Y-141180330D01*
X163530729Y-141666511D01*
X163416655Y-142240000D01*
X163530729Y-142813489D01*
X163855585Y-143299670D01*
X164170365Y-143510000D01*
X163855585Y-143720330D01*
X163530729Y-144206511D01*
X163416655Y-144780000D01*
X163530729Y-145353489D01*
X163855585Y-145839670D01*
X164170365Y-146050000D01*
X163855585Y-146260330D01*
X163530729Y-146746511D01*
X163416655Y-147320000D01*
X163530729Y-147893489D01*
X163855585Y-148379670D01*
X164170365Y-148590000D01*
X163855585Y-148800330D01*
X163530729Y-149286511D01*
X163416655Y-149860000D01*
X163530729Y-150433489D01*
X163855585Y-150919670D01*
X164170365Y-151130000D01*
X163855585Y-151340330D01*
X163530729Y-151826511D01*
X163416655Y-152400000D01*
X163530729Y-152973489D01*
X163855585Y-153459670D01*
X164165069Y-153666460D01*
X163749268Y-154037964D01*
X163495291Y-154565209D01*
X163492642Y-154580974D01*
X163613783Y-154813000D01*
X164973000Y-154813000D01*
X164973000Y-154793000D01*
X165227000Y-154793000D01*
X165227000Y-154813000D01*
X166586217Y-154813000D01*
X166707358Y-154580974D01*
X166704709Y-154565209D01*
X166450732Y-154037964D01*
X166034930Y-153666460D01*
X166344415Y-153459670D01*
X166669271Y-152973489D01*
X166783345Y-152400000D01*
X166783345Y-159260000D01*
X166707358Y-159260000D01*
X166707358Y-155299026D01*
X166586217Y-155067000D01*
X165227000Y-155067000D01*
X165227000Y-156280924D01*
X165461913Y-156425184D01*
X166014320Y-156231954D01*
X166450732Y-155842036D01*
X166704709Y-155314791D01*
X166707358Y-155299026D01*
X166707358Y-159260000D01*
X166370000Y-159260000D01*
X166127413Y-159308253D01*
X166079160Y-159317852D01*
X165832599Y-159482599D01*
X164973000Y-160342198D01*
X164973000Y-156280924D01*
X164973000Y-155067000D01*
X163613783Y-155067000D01*
X163492642Y-155299026D01*
X163495291Y-155314791D01*
X163749268Y-155842036D01*
X164185680Y-156231954D01*
X164738087Y-156425184D01*
X164973000Y-156280924D01*
X164973000Y-160342198D01*
X163515198Y-161800000D01*
X162162774Y-161800000D01*
X162162774Y-157918306D01*
X162162774Y-147758306D01*
X162162774Y-144202306D01*
X161914462Y-143601345D01*
X161702055Y-143388567D01*
X161737328Y-143373957D01*
X161915957Y-143195329D01*
X162012630Y-142961940D01*
X162012630Y-142709321D01*
X162012630Y-142271750D01*
X162012630Y-141700250D01*
X162012630Y-141262679D01*
X162012630Y-141010060D01*
X161915957Y-140776671D01*
X161737328Y-140598043D01*
X161503939Y-140501370D01*
X160813750Y-140501370D01*
X160655000Y-140660120D01*
X160655000Y-141859000D01*
X161853880Y-141859000D01*
X162012630Y-141700250D01*
X162012630Y-142271750D01*
X161853880Y-142113000D01*
X160655000Y-142113000D01*
X160655000Y-142133000D01*
X160401000Y-142133000D01*
X160401000Y-142113000D01*
X160401000Y-141859000D01*
X160401000Y-140660120D01*
X160242250Y-140501370D01*
X159552061Y-140501370D01*
X159318672Y-140598043D01*
X159140043Y-140776671D01*
X159043370Y-141010060D01*
X159043370Y-141262679D01*
X159043370Y-141700250D01*
X159202120Y-141859000D01*
X160401000Y-141859000D01*
X160401000Y-142113000D01*
X159202120Y-142113000D01*
X159043370Y-142271750D01*
X159043370Y-142709321D01*
X159043370Y-142961940D01*
X159140043Y-143195329D01*
X159318672Y-143373957D01*
X159353899Y-143388548D01*
X159143154Y-143598927D01*
X158893794Y-144199453D01*
X158893226Y-144849694D01*
X159141538Y-145450655D01*
X159600927Y-145910846D01*
X160201453Y-146160206D01*
X160851694Y-146160774D01*
X161452655Y-145912462D01*
X161912846Y-145453073D01*
X162162206Y-144852547D01*
X162162774Y-144202306D01*
X162162774Y-147758306D01*
X161914462Y-147157345D01*
X161455073Y-146697154D01*
X160854547Y-146447794D01*
X160204306Y-146447226D01*
X159603345Y-146695538D01*
X159143154Y-147154927D01*
X158893794Y-147755453D01*
X158893226Y-148405694D01*
X159141538Y-149006655D01*
X159600927Y-149466846D01*
X160201453Y-149716206D01*
X160851694Y-149716774D01*
X161452655Y-149468462D01*
X161912846Y-149009073D01*
X162162206Y-148408547D01*
X162162774Y-147758306D01*
X162162774Y-157918306D01*
X161914462Y-157317345D01*
X161455073Y-156857154D01*
X160854547Y-156607794D01*
X160204306Y-156607226D01*
X159603345Y-156855538D01*
X159143154Y-157314927D01*
X158893794Y-157915453D01*
X158893226Y-158565694D01*
X159141538Y-159166655D01*
X159600927Y-159626846D01*
X160201453Y-159876206D01*
X160851694Y-159876774D01*
X161452655Y-159628462D01*
X161912846Y-159169073D01*
X162162206Y-158568547D01*
X162162774Y-157918306D01*
X162162774Y-161800000D01*
X158240000Y-161800000D01*
X158240000Y-134934802D01*
X159287401Y-133887401D01*
X159452148Y-133640840D01*
X159452148Y-133640839D01*
X159510000Y-133350000D01*
X159510000Y-130163079D01*
X159578540Y-130094659D01*
X159727730Y-129735370D01*
X159728069Y-129346337D01*
X159579507Y-128986788D01*
X159304659Y-128711460D01*
X158945370Y-128562270D01*
X158556337Y-128561931D01*
X158196788Y-128710493D01*
X157921460Y-128985341D01*
X157772270Y-129344630D01*
X157771931Y-129733663D01*
X157920493Y-130093212D01*
X157990000Y-130162840D01*
X157990000Y-133035198D01*
X156942599Y-134082599D01*
X156777852Y-134329161D01*
X156720000Y-134620000D01*
X156720000Y-162560000D01*
X156720000Y-169420000D01*
X156623345Y-169420000D01*
X156623345Y-162560000D01*
X156509271Y-161986511D01*
X156184415Y-161500330D01*
X155869634Y-161290000D01*
X156184415Y-161079670D01*
X156509271Y-160593489D01*
X156623345Y-160020000D01*
X156509271Y-159446511D01*
X156184415Y-158960330D01*
X155869634Y-158750000D01*
X156184415Y-158539670D01*
X156509271Y-158053489D01*
X156623345Y-157480000D01*
X156509271Y-156906511D01*
X156184415Y-156420330D01*
X155869634Y-156210000D01*
X156184415Y-155999670D01*
X156509271Y-155513489D01*
X156623345Y-154940000D01*
X156509271Y-154366511D01*
X156184415Y-153880330D01*
X155869634Y-153670000D01*
X156184415Y-153459670D01*
X156509271Y-152973489D01*
X156623345Y-152400000D01*
X156509271Y-151826511D01*
X156184415Y-151340330D01*
X155869634Y-151130000D01*
X156184415Y-150919670D01*
X156509271Y-150433489D01*
X156623345Y-149860000D01*
X156509271Y-149286511D01*
X156184415Y-148800330D01*
X155869634Y-148590000D01*
X156184415Y-148379670D01*
X156509271Y-147893489D01*
X156623345Y-147320000D01*
X156509271Y-146746511D01*
X156184415Y-146260330D01*
X155869634Y-146050000D01*
X156184415Y-145839670D01*
X156509271Y-145353489D01*
X156623345Y-144780000D01*
X156509271Y-144206511D01*
X156184415Y-143720330D01*
X155869634Y-143510000D01*
X156184415Y-143299670D01*
X156509271Y-142813489D01*
X156623345Y-142240000D01*
X156509271Y-141666511D01*
X156184415Y-141180330D01*
X155869634Y-140970000D01*
X156184415Y-140759670D01*
X156509271Y-140273489D01*
X156623345Y-139700000D01*
X156509271Y-139126511D01*
X156184415Y-138640330D01*
X155869634Y-138430000D01*
X156184415Y-138219670D01*
X156509271Y-137733489D01*
X156623345Y-137160000D01*
X156509271Y-136586511D01*
X156184415Y-136100330D01*
X155869634Y-135890000D01*
X156184415Y-135679670D01*
X156509271Y-135193489D01*
X156623345Y-134620000D01*
X156509271Y-134046511D01*
X156184415Y-133560330D01*
X155869634Y-133350000D01*
X156184415Y-133139670D01*
X156509271Y-132653489D01*
X156623345Y-132080000D01*
X156509271Y-131506511D01*
X156184415Y-131020330D01*
X156168632Y-131009784D01*
X156198123Y-131004063D01*
X156410927Y-130864273D01*
X156553377Y-130653240D01*
X156603440Y-130403600D01*
X156603440Y-128676400D01*
X156556463Y-128434277D01*
X156416673Y-128221473D01*
X156205640Y-128079023D01*
X155956000Y-128028960D01*
X153924000Y-128028960D01*
X153681877Y-128075937D01*
X153469073Y-128215727D01*
X153326623Y-128426760D01*
X153276560Y-128676400D01*
X153276560Y-130403600D01*
X153323537Y-130645723D01*
X153463327Y-130858527D01*
X153674360Y-131000977D01*
X153712962Y-131008718D01*
X153695585Y-131020330D01*
X153370729Y-131506511D01*
X153256655Y-132080000D01*
X153370729Y-132653489D01*
X153695585Y-133139670D01*
X154010365Y-133350000D01*
X153695585Y-133560330D01*
X153370729Y-134046511D01*
X153256655Y-134620000D01*
X153370729Y-135193489D01*
X153695585Y-135679670D01*
X154010365Y-135890000D01*
X153695585Y-136100330D01*
X153370729Y-136586511D01*
X153256655Y-137160000D01*
X153370729Y-137733489D01*
X153695585Y-138219670D01*
X154010365Y-138430000D01*
X153695585Y-138640330D01*
X153370729Y-139126511D01*
X153256655Y-139700000D01*
X153370729Y-140273489D01*
X153695585Y-140759670D01*
X154010365Y-140970000D01*
X153695585Y-141180330D01*
X153370729Y-141666511D01*
X153256655Y-142240000D01*
X153370729Y-142813489D01*
X153695585Y-143299670D01*
X154010365Y-143510000D01*
X153695585Y-143720330D01*
X153370729Y-144206511D01*
X153256655Y-144780000D01*
X153370729Y-145353489D01*
X153695585Y-145839670D01*
X154010365Y-146050000D01*
X153695585Y-146260330D01*
X153370729Y-146746511D01*
X153256655Y-147320000D01*
X153370729Y-147893489D01*
X153695585Y-148379670D01*
X154010365Y-148590000D01*
X153695585Y-148800330D01*
X153370729Y-149286511D01*
X153256655Y-149860000D01*
X153370729Y-150433489D01*
X153695585Y-150919670D01*
X154010365Y-151130000D01*
X153695585Y-151340330D01*
X153370729Y-151826511D01*
X153256655Y-152400000D01*
X153370729Y-152973489D01*
X153695585Y-153459670D01*
X154010365Y-153670000D01*
X153695585Y-153880330D01*
X153370729Y-154366511D01*
X153256655Y-154940000D01*
X153370729Y-155513489D01*
X153695585Y-155999670D01*
X154010365Y-156210000D01*
X153695585Y-156420330D01*
X153370729Y-156906511D01*
X153256655Y-157480000D01*
X153370729Y-158053489D01*
X153695585Y-158539670D01*
X154010365Y-158750000D01*
X153695585Y-158960330D01*
X153370729Y-159446511D01*
X153256655Y-160020000D01*
X153370729Y-160593489D01*
X153695585Y-161079670D01*
X154010365Y-161290000D01*
X153695585Y-161500330D01*
X153370729Y-161986511D01*
X153256655Y-162560000D01*
X153370729Y-163133489D01*
X153695585Y-163619670D01*
X154181766Y-163944526D01*
X154755255Y-164058600D01*
X155124745Y-164058600D01*
X155698234Y-163944526D01*
X156184415Y-163619670D01*
X156509271Y-163133489D01*
X156623345Y-162560000D01*
X156623345Y-169420000D01*
X155563079Y-169420000D01*
X155494659Y-169351460D01*
X155135370Y-169202270D01*
X154746337Y-169201931D01*
X154386788Y-169350493D01*
X154111460Y-169625341D01*
X153962270Y-169984630D01*
X153961931Y-170373663D01*
X154110493Y-170733212D01*
X154385341Y-171008540D01*
X154744630Y-171157730D01*
X155133663Y-171158069D01*
X155493212Y-171009507D01*
X155562840Y-170940000D01*
X157480000Y-170940000D01*
X157770839Y-170882148D01*
X158017401Y-170717401D01*
X158182148Y-170470839D01*
X158240000Y-170180000D01*
X158240000Y-163320000D01*
X163830000Y-163320000D01*
X164120839Y-163262148D01*
X164367401Y-163097401D01*
X166684802Y-160780000D01*
X169865198Y-160780000D01*
X171742015Y-162656817D01*
X171741931Y-162753663D01*
X171890493Y-163113212D01*
X171960000Y-163182840D01*
X171960000Y-172096920D01*
X171891460Y-172165341D01*
X171742270Y-172524630D01*
X171741931Y-172913663D01*
X171890493Y-173273212D01*
X172165341Y-173548540D01*
X172524630Y-173697730D01*
X172913663Y-173698069D01*
X173273212Y-173549507D01*
X173548540Y-173274659D01*
X173697730Y-172915370D01*
X173698069Y-172526337D01*
X173698069Y-174575000D01*
X170297652Y-174575000D01*
X170297652Y-170905777D01*
X170297652Y-163285777D01*
X170269531Y-162739328D01*
X170114516Y-162365089D01*
X169874567Y-162298278D01*
X169694962Y-162477883D01*
X169694962Y-162118673D01*
X169628151Y-161878724D01*
X169112537Y-161695588D01*
X168566088Y-161723709D01*
X168191849Y-161878724D01*
X168125038Y-162118673D01*
X168910000Y-162903635D01*
X169694962Y-162118673D01*
X169694962Y-162477883D01*
X169089605Y-163083240D01*
X169874567Y-163868202D01*
X170114516Y-163801391D01*
X170297652Y-163285777D01*
X170297652Y-170905777D01*
X170285648Y-170672514D01*
X170285648Y-164812374D01*
X170076696Y-164306671D01*
X169690124Y-163919424D01*
X169478850Y-163831695D01*
X168910000Y-163262845D01*
X168730395Y-163442449D01*
X168730395Y-163083240D01*
X167945433Y-162298278D01*
X167705484Y-162365089D01*
X167522348Y-162880703D01*
X167550469Y-163427152D01*
X167705484Y-163801391D01*
X167945433Y-163868202D01*
X168730395Y-163083240D01*
X168730395Y-163442449D01*
X168341297Y-163831547D01*
X168131911Y-163918064D01*
X167744664Y-164304636D01*
X167534829Y-164809974D01*
X167534352Y-165357146D01*
X167743304Y-165862849D01*
X168129876Y-166250096D01*
X168635214Y-166459931D01*
X169182386Y-166460408D01*
X169688089Y-166251456D01*
X170075336Y-165864884D01*
X170285171Y-165359546D01*
X170285648Y-164812374D01*
X170285648Y-170672514D01*
X170269531Y-170359328D01*
X170114516Y-169985089D01*
X169874567Y-169918278D01*
X169694962Y-170097883D01*
X169694962Y-169738673D01*
X169628151Y-169498724D01*
X169112537Y-169315588D01*
X168566088Y-169343709D01*
X168191849Y-169498724D01*
X168125038Y-169738673D01*
X168910000Y-170523635D01*
X169694962Y-169738673D01*
X169694962Y-170097883D01*
X169089605Y-170703240D01*
X169874567Y-171488202D01*
X170114516Y-171421391D01*
X170297652Y-170905777D01*
X170297652Y-174575000D01*
X170285648Y-174575000D01*
X170285648Y-172432374D01*
X170076696Y-171926671D01*
X169690124Y-171539424D01*
X169478850Y-171451695D01*
X168910000Y-170882845D01*
X168730395Y-171062449D01*
X168730395Y-170703240D01*
X167945433Y-169918278D01*
X167705484Y-169985089D01*
X167522348Y-170500703D01*
X167550469Y-171047152D01*
X167705484Y-171421391D01*
X167945433Y-171488202D01*
X168730395Y-170703240D01*
X168730395Y-171062449D01*
X168341297Y-171451547D01*
X168131911Y-171538064D01*
X167744664Y-171924636D01*
X167534829Y-172429974D01*
X167534352Y-172977146D01*
X167743304Y-173482849D01*
X168129876Y-173870096D01*
X168635214Y-174079931D01*
X169182386Y-174080408D01*
X169688089Y-173871456D01*
X170075336Y-173484884D01*
X170285171Y-172979546D01*
X170285648Y-172432374D01*
X170285648Y-174575000D01*
X163232321Y-174575000D01*
X163232321Y-168910000D01*
X163106646Y-168278190D01*
X162748754Y-167742567D01*
X162595251Y-167640000D01*
X162748754Y-167537433D01*
X163106646Y-167001810D01*
X163232321Y-166370000D01*
X163106646Y-165738190D01*
X162748754Y-165202567D01*
X162213131Y-164844675D01*
X161581321Y-164719000D01*
X160998679Y-164719000D01*
X160366869Y-164844675D01*
X159831246Y-165202567D01*
X159473354Y-165738190D01*
X159347679Y-166370000D01*
X159473354Y-167001810D01*
X159831246Y-167537433D01*
X159984748Y-167640000D01*
X159831246Y-167742567D01*
X159473354Y-168278190D01*
X159347679Y-168910000D01*
X159473354Y-169541810D01*
X159831246Y-170077433D01*
X160005781Y-170194053D01*
X159778764Y-170372370D01*
X159462074Y-170935523D01*
X159430025Y-171067056D01*
X159549164Y-171323000D01*
X161163000Y-171323000D01*
X161163000Y-171303000D01*
X161417000Y-171303000D01*
X161417000Y-171323000D01*
X163030836Y-171323000D01*
X163149975Y-171067056D01*
X163117926Y-170935523D01*
X162801236Y-170372370D01*
X162574218Y-170194053D01*
X162748754Y-170077433D01*
X163106646Y-169541810D01*
X163232321Y-168910000D01*
X163232321Y-174575000D01*
X163149975Y-174575000D01*
X163149975Y-171832944D01*
X163030836Y-171577000D01*
X161417000Y-171577000D01*
X161417000Y-173101000D01*
X161671000Y-173101000D01*
X162293143Y-172926724D01*
X162801236Y-172527630D01*
X163117926Y-171964477D01*
X163149975Y-171832944D01*
X163149975Y-174575000D01*
X161163000Y-174575000D01*
X161163000Y-173101000D01*
X161163000Y-171577000D01*
X159549164Y-171577000D01*
X159430025Y-171832944D01*
X159462074Y-171964477D01*
X159778764Y-172527630D01*
X160286857Y-172926724D01*
X160909000Y-173101000D01*
X161163000Y-173101000D01*
X161163000Y-174575000D01*
X152813345Y-174575000D01*
X152813345Y-172720000D01*
X152699271Y-172146511D01*
X152374415Y-171660330D01*
X152059634Y-171450000D01*
X152374415Y-171239670D01*
X152699271Y-170753489D01*
X152813345Y-170180000D01*
X152699271Y-169606511D01*
X152374415Y-169120330D01*
X152358632Y-169109784D01*
X152388123Y-169104063D01*
X152600927Y-168964273D01*
X152743377Y-168753240D01*
X152793440Y-168503600D01*
X152793440Y-166776400D01*
X152746463Y-166534277D01*
X152715275Y-166486799D01*
X152715275Y-162246107D01*
X152474481Y-161663343D01*
X152101529Y-161289739D01*
X152472914Y-160919003D01*
X152714724Y-160336659D01*
X152715275Y-159706107D01*
X152474481Y-159123343D01*
X152101529Y-158749739D01*
X152472914Y-158379003D01*
X152714724Y-157796659D01*
X152715275Y-157166107D01*
X152474481Y-156583343D01*
X152101529Y-156209739D01*
X152472914Y-155839003D01*
X152714724Y-155256659D01*
X152715275Y-154626107D01*
X152474481Y-154043343D01*
X152101529Y-153669739D01*
X152472914Y-153299003D01*
X152714724Y-152716659D01*
X152715275Y-152086107D01*
X152474481Y-151503343D01*
X152101529Y-151129739D01*
X152472914Y-150759003D01*
X152714724Y-150176659D01*
X152715275Y-149546107D01*
X152474481Y-148963343D01*
X152101529Y-148589739D01*
X152472914Y-148219003D01*
X152714724Y-147636659D01*
X152715275Y-147006107D01*
X152474481Y-146423343D01*
X152101529Y-146049739D01*
X152472914Y-145679003D01*
X152714724Y-145096659D01*
X152715275Y-144466107D01*
X152474481Y-143883343D01*
X152101529Y-143509739D01*
X152472914Y-143139003D01*
X152714724Y-142556659D01*
X152715275Y-141926107D01*
X152474481Y-141343343D01*
X152101529Y-140969739D01*
X152472914Y-140599003D01*
X152714724Y-140016659D01*
X152715275Y-139386107D01*
X152474481Y-138803343D01*
X152101529Y-138429739D01*
X152472914Y-138059003D01*
X152714724Y-137476659D01*
X152715275Y-136846107D01*
X152474481Y-136263343D01*
X152101529Y-135889739D01*
X152472914Y-135519003D01*
X152714724Y-134936659D01*
X152715275Y-134306107D01*
X152474481Y-133723343D01*
X152101529Y-133349739D01*
X152472914Y-132979003D01*
X152714724Y-132396659D01*
X152715275Y-131766107D01*
X152474481Y-131183343D01*
X152101529Y-130809739D01*
X152472914Y-130439003D01*
X152714724Y-129856659D01*
X152715275Y-129226107D01*
X152474481Y-128643343D01*
X152029003Y-128197086D01*
X151446659Y-127955276D01*
X150816107Y-127954725D01*
X150233343Y-128195519D01*
X149787086Y-128640997D01*
X149545276Y-129223341D01*
X149544725Y-129853893D01*
X149785519Y-130436657D01*
X150158470Y-130810260D01*
X149787086Y-131180997D01*
X149545276Y-131763341D01*
X149544725Y-132393893D01*
X149785519Y-132976657D01*
X150158470Y-133350260D01*
X149787086Y-133720997D01*
X149545276Y-134303341D01*
X149544725Y-134933893D01*
X149785519Y-135516657D01*
X150158470Y-135890260D01*
X149787086Y-136260997D01*
X149545276Y-136843341D01*
X149544725Y-137473893D01*
X149785519Y-138056657D01*
X150158470Y-138430260D01*
X149787086Y-138800997D01*
X149545276Y-139383341D01*
X149544725Y-140013893D01*
X149785519Y-140596657D01*
X150158470Y-140970260D01*
X149787086Y-141340997D01*
X149545276Y-141923341D01*
X149544725Y-142553893D01*
X149785519Y-143136657D01*
X150158470Y-143510260D01*
X149787086Y-143880997D01*
X149545276Y-144463341D01*
X149544725Y-145093893D01*
X149785519Y-145676657D01*
X150158470Y-146050260D01*
X149787086Y-146420997D01*
X149545276Y-147003341D01*
X149544725Y-147633893D01*
X149785519Y-148216657D01*
X150158470Y-148590260D01*
X149787086Y-148960997D01*
X149545276Y-149543341D01*
X149544725Y-150173893D01*
X149785519Y-150756657D01*
X150158470Y-151130260D01*
X149787086Y-151500997D01*
X149545276Y-152083341D01*
X149544725Y-152713893D01*
X149785519Y-153296657D01*
X150158470Y-153670260D01*
X149787086Y-154040997D01*
X149545276Y-154623341D01*
X149544725Y-155253893D01*
X149785519Y-155836657D01*
X150158470Y-156210260D01*
X149787086Y-156580997D01*
X149545276Y-157163341D01*
X149544725Y-157793893D01*
X149785519Y-158376657D01*
X150158470Y-158750260D01*
X149787086Y-159120997D01*
X149545276Y-159703341D01*
X149544725Y-160333893D01*
X149785519Y-160916657D01*
X150158470Y-161290260D01*
X149859739Y-161588470D01*
X149489003Y-161217086D01*
X148906659Y-160975276D01*
X148276107Y-160974725D01*
X147693343Y-161215519D01*
X147319739Y-161588470D01*
X146949003Y-161217086D01*
X146366659Y-160975276D01*
X145736107Y-160974725D01*
X145153343Y-161215519D01*
X144779739Y-161588470D01*
X144409003Y-161217086D01*
X143826659Y-160975276D01*
X143196107Y-160974725D01*
X142613343Y-161215519D01*
X142239739Y-161588470D01*
X141869003Y-161217086D01*
X141286659Y-160975276D01*
X140656107Y-160974725D01*
X140073343Y-161215519D01*
X139699739Y-161588470D01*
X139329003Y-161217086D01*
X138746659Y-160975276D01*
X138116107Y-160974725D01*
X137533343Y-161215519D01*
X137486188Y-161262591D01*
X137486188Y-129792602D01*
X137461352Y-129162539D01*
X137268019Y-128695792D01*
X137006350Y-128603255D01*
X136826745Y-128782860D01*
X136826745Y-128423650D01*
X136734208Y-128161981D01*
X136142602Y-127943812D01*
X135512539Y-127968648D01*
X135045792Y-128161981D01*
X134953255Y-128423650D01*
X135890000Y-129360395D01*
X136826745Y-128423650D01*
X136826745Y-128782860D01*
X136069605Y-129540000D01*
X137006350Y-130476745D01*
X137268019Y-130384208D01*
X137486188Y-129792602D01*
X137486188Y-161262591D01*
X137159739Y-161588470D01*
X136861529Y-161289739D01*
X137232914Y-160919003D01*
X137474724Y-160336659D01*
X137475275Y-159706107D01*
X137234481Y-159123343D01*
X136861529Y-158749739D01*
X137232914Y-158379003D01*
X137474724Y-157796659D01*
X137475275Y-157166107D01*
X137234481Y-156583343D01*
X136861529Y-156209739D01*
X137232914Y-155839003D01*
X137474724Y-155256659D01*
X137475275Y-154626107D01*
X137234481Y-154043343D01*
X136861529Y-153669739D01*
X137232914Y-153299003D01*
X137474724Y-152716659D01*
X137475275Y-152086107D01*
X137234481Y-151503343D01*
X136861529Y-151129739D01*
X137232914Y-150759003D01*
X137474724Y-150176659D01*
X137475275Y-149546107D01*
X137234481Y-148963343D01*
X136861529Y-148589739D01*
X137232914Y-148219003D01*
X137474724Y-147636659D01*
X137475275Y-147006107D01*
X137234481Y-146423343D01*
X136861529Y-146049739D01*
X137232914Y-145679003D01*
X137474724Y-145096659D01*
X137475275Y-144466107D01*
X137234481Y-143883343D01*
X136861529Y-143509739D01*
X137232914Y-143139003D01*
X137474724Y-142556659D01*
X137475275Y-141926107D01*
X137234481Y-141343343D01*
X136861529Y-140969739D01*
X137232914Y-140599003D01*
X137474724Y-140016659D01*
X137475275Y-139386107D01*
X137234481Y-138803343D01*
X136861529Y-138429739D01*
X137232914Y-138059003D01*
X137474724Y-137476659D01*
X137475275Y-136846107D01*
X137234481Y-136263343D01*
X136861529Y-135889739D01*
X137232914Y-135519003D01*
X137474724Y-134936659D01*
X137475275Y-134306107D01*
X137234481Y-133723343D01*
X136861529Y-133349739D01*
X137232914Y-132979003D01*
X137474724Y-132396659D01*
X137475275Y-131766107D01*
X137234481Y-131183343D01*
X136795789Y-130743884D01*
X136826745Y-130656350D01*
X135890000Y-129719605D01*
X135710395Y-129899210D01*
X135710395Y-129540000D01*
X134773650Y-128603255D01*
X134511981Y-128695792D01*
X134293812Y-129287398D01*
X134318648Y-129917461D01*
X134511981Y-130384208D01*
X134773650Y-130476745D01*
X135710395Y-129540000D01*
X135710395Y-129899210D01*
X134953255Y-130656350D01*
X134984407Y-130744439D01*
X134547086Y-131180997D01*
X134305276Y-131763341D01*
X134304725Y-132393893D01*
X134545519Y-132976657D01*
X134918470Y-133350260D01*
X134547086Y-133720997D01*
X134305276Y-134303341D01*
X134304725Y-134933893D01*
X134545519Y-135516657D01*
X134918470Y-135890260D01*
X134547086Y-136260997D01*
X134305276Y-136843341D01*
X134304725Y-137473893D01*
X134545519Y-138056657D01*
X134918470Y-138430260D01*
X134547086Y-138800997D01*
X134305276Y-139383341D01*
X134304725Y-140013893D01*
X134545519Y-140596657D01*
X134918470Y-140970260D01*
X134547086Y-141340997D01*
X134305276Y-141923341D01*
X134304725Y-142553893D01*
X134545519Y-143136657D01*
X134918470Y-143510260D01*
X134547086Y-143880997D01*
X134305276Y-144463341D01*
X134304725Y-145093893D01*
X134545519Y-145676657D01*
X134918470Y-146050260D01*
X134547086Y-146420997D01*
X134305276Y-147003341D01*
X134304725Y-147633893D01*
X134545519Y-148216657D01*
X134918470Y-148590260D01*
X134547086Y-148960997D01*
X134305276Y-149543341D01*
X134304725Y-150173893D01*
X134545519Y-150756657D01*
X134918470Y-151130260D01*
X134547086Y-151500997D01*
X134305276Y-152083341D01*
X134304725Y-152713893D01*
X134545519Y-153296657D01*
X134918470Y-153670260D01*
X134547086Y-154040997D01*
X134305276Y-154623341D01*
X134304725Y-155253893D01*
X134545519Y-155836657D01*
X134918470Y-156210260D01*
X134547086Y-156580997D01*
X134305276Y-157163341D01*
X134304725Y-157793893D01*
X134545519Y-158376657D01*
X134918470Y-158750260D01*
X134547086Y-159120997D01*
X134305276Y-159703341D01*
X134304725Y-160333893D01*
X134545519Y-160916657D01*
X134918470Y-161290260D01*
X134547086Y-161660997D01*
X134489366Y-161800000D01*
X133524648Y-161800000D01*
X133324415Y-161500330D01*
X133009634Y-161290000D01*
X133324415Y-161079670D01*
X133649271Y-160593489D01*
X133763345Y-160020000D01*
X133649271Y-159446511D01*
X133324415Y-158960330D01*
X133009634Y-158750000D01*
X133324415Y-158539670D01*
X133649271Y-158053489D01*
X133763345Y-157480000D01*
X133649271Y-156906511D01*
X133324415Y-156420330D01*
X133009634Y-156210000D01*
X133324415Y-155999670D01*
X133649271Y-155513489D01*
X133763345Y-154940000D01*
X133649271Y-154366511D01*
X133324415Y-153880330D01*
X133009634Y-153670000D01*
X133324415Y-153459670D01*
X133649271Y-152973489D01*
X133763345Y-152400000D01*
X133649271Y-151826511D01*
X133324415Y-151340330D01*
X133009634Y-151130000D01*
X133324415Y-150919670D01*
X133649271Y-150433489D01*
X133763345Y-149860000D01*
X133649271Y-149286511D01*
X133324415Y-148800330D01*
X133009634Y-148590000D01*
X133324415Y-148379670D01*
X133649271Y-147893489D01*
X133763345Y-147320000D01*
X133649271Y-146746511D01*
X133324415Y-146260330D01*
X133009634Y-146050000D01*
X133324415Y-145839670D01*
X133649271Y-145353489D01*
X133763345Y-144780000D01*
X133649271Y-144206511D01*
X133324415Y-143720330D01*
X133009634Y-143510000D01*
X133324415Y-143299670D01*
X133649271Y-142813489D01*
X133763345Y-142240000D01*
X133649271Y-141666511D01*
X133324415Y-141180330D01*
X133009634Y-140970000D01*
X133324415Y-140759670D01*
X133649271Y-140273489D01*
X133763345Y-139700000D01*
X133649271Y-139126511D01*
X133324415Y-138640330D01*
X133009634Y-138430000D01*
X133324415Y-138219670D01*
X133649271Y-137733489D01*
X133763345Y-137160000D01*
X133649271Y-136586511D01*
X133324415Y-136100330D01*
X133009634Y-135890000D01*
X133324415Y-135679670D01*
X133649271Y-135193489D01*
X133763345Y-134620000D01*
X133649271Y-134046511D01*
X133324415Y-133560330D01*
X133009634Y-133350000D01*
X133324415Y-133139670D01*
X133649271Y-132653489D01*
X133763345Y-132080000D01*
X133649271Y-131506511D01*
X133324415Y-131020330D01*
X133302219Y-131005499D01*
X133455698Y-130941927D01*
X133634327Y-130763299D01*
X133731000Y-130529910D01*
X133731000Y-130277291D01*
X133731000Y-129825750D01*
X133731000Y-129254250D01*
X133731000Y-128802709D01*
X133731000Y-128550090D01*
X133634327Y-128316701D01*
X133455698Y-128138073D01*
X133222309Y-128041400D01*
X132365750Y-128041400D01*
X132207000Y-128200150D01*
X132207000Y-129413000D01*
X133572250Y-129413000D01*
X133731000Y-129254250D01*
X133731000Y-129825750D01*
X133572250Y-129667000D01*
X132207000Y-129667000D01*
X132207000Y-129687000D01*
X131953000Y-129687000D01*
X131953000Y-129667000D01*
X131953000Y-129413000D01*
X131953000Y-128200150D01*
X131794250Y-128041400D01*
X130937691Y-128041400D01*
X130704302Y-128138073D01*
X130525673Y-128316701D01*
X130429000Y-128550090D01*
X130429000Y-128802709D01*
X130429000Y-129254250D01*
X130587750Y-129413000D01*
X131953000Y-129413000D01*
X131953000Y-129667000D01*
X130587750Y-129667000D01*
X130429000Y-129825750D01*
X130429000Y-130277291D01*
X130429000Y-130529910D01*
X130525673Y-130763299D01*
X130704302Y-130941927D01*
X130857780Y-131005499D01*
X130835585Y-131020330D01*
X130510729Y-131506511D01*
X130396655Y-132080000D01*
X130510729Y-132653489D01*
X130835585Y-133139670D01*
X131150365Y-133350000D01*
X130835585Y-133560330D01*
X130510729Y-134046511D01*
X130396655Y-134620000D01*
X130510729Y-135193489D01*
X130835585Y-135679670D01*
X131150365Y-135890000D01*
X130835585Y-136100330D01*
X130510729Y-136586511D01*
X130396655Y-137160000D01*
X130510729Y-137733489D01*
X130835585Y-138219670D01*
X131150365Y-138430000D01*
X130835585Y-138640330D01*
X130510729Y-139126511D01*
X130396655Y-139700000D01*
X130510729Y-140273489D01*
X130835585Y-140759670D01*
X131150365Y-140970000D01*
X130835585Y-141180330D01*
X130510729Y-141666511D01*
X130396655Y-142240000D01*
X130510729Y-142813489D01*
X130835585Y-143299670D01*
X131150365Y-143510000D01*
X130835585Y-143720330D01*
X130510729Y-144206511D01*
X130396655Y-144780000D01*
X130510729Y-145353489D01*
X130835585Y-145839670D01*
X131150365Y-146050000D01*
X130835585Y-146260330D01*
X130510729Y-146746511D01*
X130396655Y-147320000D01*
X130510729Y-147893489D01*
X130835585Y-148379670D01*
X131150365Y-148590000D01*
X130835585Y-148800330D01*
X130510729Y-149286511D01*
X130396655Y-149860000D01*
X130510729Y-150433489D01*
X130835585Y-150919670D01*
X131150365Y-151130000D01*
X130835585Y-151340330D01*
X130510729Y-151826511D01*
X130396655Y-152400000D01*
X130510729Y-152973489D01*
X130835585Y-153459670D01*
X131150365Y-153670000D01*
X130835585Y-153880330D01*
X130510729Y-154366511D01*
X130396655Y-154940000D01*
X130510729Y-155513489D01*
X130835585Y-155999670D01*
X131150365Y-156210000D01*
X130835585Y-156420330D01*
X130510729Y-156906511D01*
X130396655Y-157480000D01*
X130510729Y-158053489D01*
X130835585Y-158539670D01*
X131150365Y-158750000D01*
X130835585Y-158960330D01*
X130510729Y-159446511D01*
X130396655Y-160020000D01*
X130510729Y-160593489D01*
X130835585Y-161079670D01*
X131150365Y-161290000D01*
X130835585Y-161500330D01*
X130510729Y-161986511D01*
X130396655Y-162560000D01*
X130510729Y-163133489D01*
X130835585Y-163619670D01*
X131321766Y-163944526D01*
X131895255Y-164058600D01*
X132264745Y-164058600D01*
X132838234Y-163944526D01*
X133324415Y-163619670D01*
X133524648Y-163320000D01*
X134489053Y-163320000D01*
X134545519Y-163456657D01*
X134990997Y-163902914D01*
X135573341Y-164144724D01*
X136203893Y-164145275D01*
X136786657Y-163904481D01*
X137160260Y-163531529D01*
X137530997Y-163902914D01*
X138113341Y-164144724D01*
X138743893Y-164145275D01*
X139326657Y-163904481D01*
X139700260Y-163531529D01*
X140070997Y-163902914D01*
X140653341Y-164144724D01*
X141283893Y-164145275D01*
X141866657Y-163904481D01*
X142240260Y-163531529D01*
X142610997Y-163902914D01*
X143193341Y-164144724D01*
X143823893Y-164145275D01*
X144406657Y-163904481D01*
X144780260Y-163531529D01*
X145150997Y-163902914D01*
X145733341Y-164144724D01*
X146363893Y-164145275D01*
X146946657Y-163904481D01*
X147320260Y-163531529D01*
X147690997Y-163902914D01*
X148273341Y-164144724D01*
X148903893Y-164145275D01*
X149486657Y-163904481D01*
X149860260Y-163531529D01*
X150230997Y-163902914D01*
X150813341Y-164144724D01*
X151443893Y-164145275D01*
X152026657Y-163904481D01*
X152472914Y-163459003D01*
X152714724Y-162876659D01*
X152715275Y-162246107D01*
X152715275Y-166486799D01*
X152606673Y-166321473D01*
X152395640Y-166179023D01*
X152146000Y-166128960D01*
X150114000Y-166128960D01*
X149871877Y-166175937D01*
X149659073Y-166315727D01*
X149516623Y-166526760D01*
X149466560Y-166776400D01*
X149466560Y-168503600D01*
X149513537Y-168745723D01*
X149653327Y-168958527D01*
X149864360Y-169100977D01*
X149902962Y-169108718D01*
X149885585Y-169120330D01*
X149560729Y-169606511D01*
X149446655Y-170180000D01*
X149560729Y-170753489D01*
X149885585Y-171239670D01*
X150200365Y-171450000D01*
X149885585Y-171660330D01*
X149560729Y-172146511D01*
X149446655Y-172720000D01*
X149560729Y-173293489D01*
X149885585Y-173779670D01*
X150371766Y-174104526D01*
X150945255Y-174218600D01*
X151314745Y-174218600D01*
X151888234Y-174104526D01*
X152374415Y-173779670D01*
X152699271Y-173293489D01*
X152813345Y-172720000D01*
X152813345Y-174575000D01*
X146443440Y-174575000D01*
X146443440Y-171196000D01*
X146443440Y-169164000D01*
X146396463Y-168921877D01*
X146256673Y-168709073D01*
X146045640Y-168566623D01*
X145796000Y-168516560D01*
X143764000Y-168516560D01*
X143521877Y-168563537D01*
X143309073Y-168703327D01*
X143166623Y-168914360D01*
X143116560Y-169164000D01*
X143116560Y-171196000D01*
X143163537Y-171438123D01*
X143303327Y-171650927D01*
X143463043Y-171758737D01*
X143373615Y-171855182D01*
X143174025Y-172337056D01*
X143293164Y-172593000D01*
X144653000Y-172593000D01*
X144653000Y-172573000D01*
X144907000Y-172573000D01*
X144907000Y-172593000D01*
X146266836Y-172593000D01*
X146385975Y-172337056D01*
X146186385Y-171855182D01*
X146096425Y-171758164D01*
X146250927Y-171656673D01*
X146393377Y-171445640D01*
X146443440Y-171196000D01*
X146443440Y-174575000D01*
X146385975Y-174575000D01*
X146385975Y-173102944D01*
X146266836Y-172847000D01*
X144907000Y-172847000D01*
X144907000Y-174207367D01*
X145162946Y-174325983D01*
X145748379Y-174057188D01*
X146186385Y-173584818D01*
X146385975Y-173102944D01*
X146385975Y-174575000D01*
X144653000Y-174575000D01*
X144653000Y-174207367D01*
X144653000Y-172847000D01*
X143293164Y-172847000D01*
X143174025Y-173102944D01*
X143373615Y-173584818D01*
X143811621Y-174057188D01*
X144397054Y-174325983D01*
X144653000Y-174207367D01*
X144653000Y-174575000D01*
X139775927Y-174575000D01*
X139775927Y-172912520D01*
X139747148Y-172382801D01*
X139599800Y-172027071D01*
X139364188Y-171965417D01*
X139184583Y-172145022D01*
X139184583Y-171785812D01*
X139122929Y-171550200D01*
X138622520Y-171374073D01*
X138092801Y-171402852D01*
X137737071Y-171550200D01*
X137675417Y-171785812D01*
X138430000Y-172540395D01*
X139184583Y-171785812D01*
X139184583Y-172145022D01*
X138609605Y-172720000D01*
X139364188Y-173474583D01*
X139599800Y-173412929D01*
X139775927Y-172912520D01*
X139775927Y-174575000D01*
X139184583Y-174575000D01*
X139184583Y-173654188D01*
X138430000Y-172899605D01*
X138250395Y-173079210D01*
X138250395Y-172720000D01*
X137495812Y-171965417D01*
X137260200Y-172027071D01*
X137084073Y-172527480D01*
X137112852Y-173057199D01*
X137260200Y-173412929D01*
X137495812Y-173474583D01*
X138250395Y-172720000D01*
X138250395Y-173079210D01*
X137675417Y-173654188D01*
X137737071Y-173889800D01*
X138237480Y-174065927D01*
X138767199Y-174037148D01*
X139122929Y-173889800D01*
X139184583Y-173654188D01*
X139184583Y-174575000D01*
X132155927Y-174575000D01*
X132155927Y-172912520D01*
X132127148Y-172382801D01*
X131979800Y-172027071D01*
X131744188Y-171965417D01*
X130989605Y-172720000D01*
X131744188Y-173474583D01*
X131979800Y-173412929D01*
X132155927Y-172912520D01*
X132155927Y-174575000D01*
X130225000Y-174575000D01*
X130225000Y-173927787D01*
X130617480Y-174065927D01*
X131147199Y-174037148D01*
X131502929Y-173889800D01*
X131564583Y-173654188D01*
X130810000Y-172899605D01*
X130795857Y-172913747D01*
X130616252Y-172734142D01*
X130630395Y-172720000D01*
X130616252Y-172705857D01*
X130795857Y-172526252D01*
X130810000Y-172540395D01*
X131564583Y-171785812D01*
X131502929Y-171550200D01*
X131002520Y-171374073D01*
X130472801Y-171402852D01*
X130225000Y-171505494D01*
X130225000Y-168840979D01*
X130543587Y-168973268D01*
X131074086Y-168973731D01*
X131564380Y-168771146D01*
X131936173Y-168400000D01*
X137304464Y-168400000D01*
X137673647Y-168769827D01*
X138163587Y-168973268D01*
X138694086Y-168973731D01*
X139184380Y-168771146D01*
X139559827Y-168396353D01*
X139763268Y-167906413D01*
X139763731Y-167375914D01*
X139561146Y-166885620D01*
X139186353Y-166510173D01*
X138696413Y-166306732D01*
X138165914Y-166306269D01*
X137675620Y-166508854D01*
X137303826Y-166880000D01*
X131935535Y-166880000D01*
X131566353Y-166510173D01*
X131076413Y-166306732D01*
X130545914Y-166306269D01*
X130225000Y-166438867D01*
X130225000Y-126161000D01*
X197435000Y-126161000D01*
X197435000Y-174575000D01*
M02*
