G04 #@! TF.FileFunction,Soldermask,Top*
%FSLAX46Y46*%
G04 Gerber Fmt 4.6, Leading zero omitted, Abs format (unit mm)*
G04 Created by KiCad (PCBNEW (2015-05-10 BZR 5649)-product) date Thursday, May 21, 2015 'PMt' 11:26:23 PM*
%MOMM*%
G01*
G04 APERTURE LIST*
%ADD10C,0.100000*%
%ADD11C,1.480820*%
%ADD12R,3.500120X3.500120*%
%ADD13R,1.699260X1.699260*%
%ADD14C,1.998980*%
%ADD15R,1.998980X1.998980*%
%ADD16C,1.524000*%
%ADD17R,2.032000X2.032000*%
%ADD18O,2.032000X2.032000*%
%ADD19R,2.032000X1.727200*%
%ADD20O,2.032000X1.727200*%
%ADD21O,2.540000X2.032000*%
%ADD22C,1.397000*%
%ADD23R,2.032000X3.657600*%
%ADD24R,2.032000X1.016000*%
%ADD25C,1.900000*%
G04 APERTURE END LIST*
D10*
D11*
X168910000Y-172704760D03*
X168910000Y-170703240D03*
X168910000Y-165084760D03*
X168910000Y-163083240D03*
D12*
X187601860Y-170180000D03*
X193601340Y-170180000D03*
X190601600Y-165481000D03*
D13*
X160528000Y-141986000D03*
D14*
X160528000Y-144526000D03*
X186690000Y-162557460D03*
D15*
X176530000Y-162557460D03*
D16*
X169340000Y-135240000D03*
X169340000Y-137240000D03*
X169340000Y-141240000D03*
X169340000Y-139240000D03*
X169340000Y-145240000D03*
X169340000Y-147240000D03*
X169340000Y-149240000D03*
X169340000Y-151240000D03*
X169340000Y-153240000D03*
X191340000Y-153240000D03*
X191340000Y-151240000D03*
X191340000Y-149240000D03*
X191340000Y-147240000D03*
X191340000Y-145240000D03*
X191340000Y-143240000D03*
X191340000Y-141240000D03*
X191340000Y-139240000D03*
X191340000Y-137240000D03*
X191340000Y-135240000D03*
X169340000Y-143240000D03*
D17*
X144780000Y-170180000D03*
D18*
X144780000Y-172720000D03*
D19*
X151130000Y-167640000D03*
D20*
X151130000Y-170180000D03*
X151130000Y-172720000D03*
D19*
X165100000Y-132080000D03*
D20*
X165100000Y-134620000D03*
X165100000Y-137160000D03*
X165100000Y-139700000D03*
X165100000Y-142240000D03*
X165100000Y-144780000D03*
X165100000Y-147320000D03*
X165100000Y-149860000D03*
X165100000Y-152400000D03*
X165100000Y-154940000D03*
D19*
X195580000Y-132080000D03*
D20*
X195580000Y-134620000D03*
X195580000Y-137160000D03*
X195580000Y-139700000D03*
X195580000Y-142240000D03*
X195580000Y-144780000D03*
X195580000Y-147320000D03*
X195580000Y-149860000D03*
X195580000Y-152400000D03*
X195580000Y-154940000D03*
D19*
X132080000Y-129540000D03*
D20*
X132080000Y-132080000D03*
X132080000Y-134620000D03*
X132080000Y-137160000D03*
X132080000Y-139700000D03*
X132080000Y-142240000D03*
X132080000Y-144780000D03*
X132080000Y-147320000D03*
X132080000Y-149860000D03*
X132080000Y-152400000D03*
X132080000Y-154940000D03*
X132080000Y-157480000D03*
X132080000Y-160020000D03*
X132080000Y-162560000D03*
D19*
X154940000Y-129540000D03*
D20*
X154940000Y-132080000D03*
X154940000Y-134620000D03*
X154940000Y-137160000D03*
X154940000Y-139700000D03*
X154940000Y-142240000D03*
X154940000Y-144780000D03*
X154940000Y-147320000D03*
X154940000Y-149860000D03*
X154940000Y-152400000D03*
X154940000Y-154940000D03*
X154940000Y-157480000D03*
X154940000Y-160020000D03*
X154940000Y-162560000D03*
D21*
X161290000Y-168910000D03*
X161290000Y-171450000D03*
X161290000Y-166370000D03*
D14*
X160528000Y-158242000D03*
X160528000Y-148082000D03*
D22*
X138430000Y-167640000D03*
X138430000Y-172720000D03*
X130810000Y-167640000D03*
X130810000Y-172720000D03*
D23*
X182372000Y-170180000D03*
D24*
X175768000Y-170180000D03*
X175768000Y-172466000D03*
X175768000Y-167894000D03*
D25*
X148590000Y-162560000D03*
X146050000Y-162560000D03*
X143510000Y-162560000D03*
X140970000Y-162560000D03*
X138430000Y-162560000D03*
X135890000Y-132080000D03*
X135890000Y-134620000D03*
X135890000Y-137160000D03*
X135890000Y-139700000D03*
X135890000Y-142240000D03*
X135890000Y-144780000D03*
X135890000Y-147320000D03*
X135890000Y-149860000D03*
X135890000Y-152400000D03*
X135890000Y-154940000D03*
X135890000Y-157480000D03*
X135890000Y-160020000D03*
X135890000Y-162560000D03*
X151130000Y-162560000D03*
X151130000Y-160020000D03*
X151130000Y-157480000D03*
X151130000Y-154940000D03*
X151130000Y-152400000D03*
X151130000Y-149860000D03*
X151130000Y-147320000D03*
X151130000Y-144780000D03*
X151130000Y-142240000D03*
X151130000Y-139700000D03*
X151130000Y-137160000D03*
X151130000Y-134620000D03*
X151130000Y-132080000D03*
X151130000Y-129540000D03*
X135890000Y-129540000D03*
M02*
