G04 #@! TF.FileFunction,Legend,Bot*
%FSLAX46Y46*%
G04 Gerber Fmt 4.6, Leading zero omitted, Abs format (unit mm)*
G04 Created by KiCad (PCBNEW (2015-05-10 BZR 5649)-product) date Thursday, May 21, 2015 'PMt' 11:34:54 PM*
%MOMM*%
G01*
G04 APERTURE LIST*
%ADD10C,0.100000*%
%ADD11C,0.250000*%
G04 APERTURE END LIST*
D10*
D11*
X192293905Y-127517381D02*
X192293905Y-126517381D01*
X191865333Y-127517381D02*
X191865333Y-126993571D01*
X191912952Y-126898333D01*
X192008190Y-126850714D01*
X192151048Y-126850714D01*
X192246286Y-126898333D01*
X192293905Y-126945952D01*
X191532000Y-126850714D02*
X191151048Y-126850714D01*
X191389143Y-126517381D02*
X191389143Y-127374524D01*
X191341524Y-127469762D01*
X191246286Y-127517381D01*
X191151048Y-127517381D01*
X190960571Y-126850714D02*
X190579619Y-126850714D01*
X190817714Y-126517381D02*
X190817714Y-127374524D01*
X190770095Y-127469762D01*
X190674857Y-127517381D01*
X190579619Y-127517381D01*
X190246285Y-126850714D02*
X190246285Y-127850714D01*
X190246285Y-126898333D02*
X190151047Y-126850714D01*
X189960570Y-126850714D01*
X189865332Y-126898333D01*
X189817713Y-126945952D01*
X189770094Y-127041190D01*
X189770094Y-127326905D01*
X189817713Y-127422143D01*
X189865332Y-127469762D01*
X189960570Y-127517381D01*
X190151047Y-127517381D01*
X190246285Y-127469762D01*
X189389142Y-127469762D02*
X189293904Y-127517381D01*
X189103428Y-127517381D01*
X189008189Y-127469762D01*
X188960570Y-127374524D01*
X188960570Y-127326905D01*
X189008189Y-127231667D01*
X189103428Y-127184048D01*
X189246285Y-127184048D01*
X189341523Y-127136429D01*
X189389142Y-127041190D01*
X189389142Y-126993571D01*
X189341523Y-126898333D01*
X189246285Y-126850714D01*
X189103428Y-126850714D01*
X189008189Y-126898333D01*
X188531999Y-127422143D02*
X188484380Y-127469762D01*
X188531999Y-127517381D01*
X188579618Y-127469762D01*
X188531999Y-127422143D01*
X188531999Y-127517381D01*
X188531999Y-126898333D02*
X188484380Y-126945952D01*
X188531999Y-126993571D01*
X188579618Y-126945952D01*
X188531999Y-126898333D01*
X188531999Y-126993571D01*
X187341523Y-126469762D02*
X188198666Y-127755476D01*
X186293904Y-126469762D02*
X187151047Y-127755476D01*
X185531999Y-126850714D02*
X185531999Y-127660238D01*
X185579618Y-127755476D01*
X185627237Y-127803095D01*
X185722476Y-127850714D01*
X185865333Y-127850714D01*
X185960571Y-127803095D01*
X185531999Y-127469762D02*
X185627237Y-127517381D01*
X185817714Y-127517381D01*
X185912952Y-127469762D01*
X185960571Y-127422143D01*
X186008190Y-127326905D01*
X186008190Y-127041190D01*
X185960571Y-126945952D01*
X185912952Y-126898333D01*
X185817714Y-126850714D01*
X185627237Y-126850714D01*
X185531999Y-126898333D01*
X185055809Y-127517381D02*
X185055809Y-126850714D01*
X185055809Y-126517381D02*
X185103428Y-126565000D01*
X185055809Y-126612619D01*
X185008190Y-126565000D01*
X185055809Y-126517381D01*
X185055809Y-126612619D01*
X184722476Y-126850714D02*
X184341524Y-126850714D01*
X184579619Y-126517381D02*
X184579619Y-127374524D01*
X184532000Y-127469762D01*
X184436762Y-127517381D01*
X184341524Y-127517381D01*
X184008190Y-127517381D02*
X184008190Y-126517381D01*
X183579618Y-127517381D02*
X183579618Y-126993571D01*
X183627237Y-126898333D01*
X183722475Y-126850714D01*
X183865333Y-126850714D01*
X183960571Y-126898333D01*
X184008190Y-126945952D01*
X182674856Y-126850714D02*
X182674856Y-127517381D01*
X183103428Y-126850714D02*
X183103428Y-127374524D01*
X183055809Y-127469762D01*
X182960571Y-127517381D01*
X182817713Y-127517381D01*
X182722475Y-127469762D01*
X182674856Y-127422143D01*
X182198666Y-127517381D02*
X182198666Y-126517381D01*
X182198666Y-126898333D02*
X182103428Y-126850714D01*
X181912951Y-126850714D01*
X181817713Y-126898333D01*
X181770094Y-126945952D01*
X181722475Y-127041190D01*
X181722475Y-127326905D01*
X181770094Y-127422143D01*
X181817713Y-127469762D01*
X181912951Y-127517381D01*
X182103428Y-127517381D01*
X182198666Y-127469762D01*
X181293904Y-127422143D02*
X181246285Y-127469762D01*
X181293904Y-127517381D01*
X181341523Y-127469762D01*
X181293904Y-127422143D01*
X181293904Y-127517381D01*
X180389142Y-127469762D02*
X180484380Y-127517381D01*
X180674857Y-127517381D01*
X180770095Y-127469762D01*
X180817714Y-127422143D01*
X180865333Y-127326905D01*
X180865333Y-127041190D01*
X180817714Y-126945952D01*
X180770095Y-126898333D01*
X180674857Y-126850714D01*
X180484380Y-126850714D01*
X180389142Y-126898333D01*
X179817714Y-127517381D02*
X179912952Y-127469762D01*
X179960571Y-127422143D01*
X180008190Y-127326905D01*
X180008190Y-127041190D01*
X179960571Y-126945952D01*
X179912952Y-126898333D01*
X179817714Y-126850714D01*
X179674856Y-126850714D01*
X179579618Y-126898333D01*
X179531999Y-126945952D01*
X179484380Y-127041190D01*
X179484380Y-127326905D01*
X179531999Y-127422143D01*
X179579618Y-127469762D01*
X179674856Y-127517381D01*
X179817714Y-127517381D01*
X179055809Y-127517381D02*
X179055809Y-126850714D01*
X179055809Y-126945952D02*
X179008190Y-126898333D01*
X178912952Y-126850714D01*
X178770094Y-126850714D01*
X178674856Y-126898333D01*
X178627237Y-126993571D01*
X178627237Y-127517381D01*
X178627237Y-126993571D02*
X178579618Y-126898333D01*
X178484380Y-126850714D01*
X178341523Y-126850714D01*
X178246285Y-126898333D01*
X178198666Y-126993571D01*
X178198666Y-127517381D01*
X177008190Y-126469762D02*
X177865333Y-127755476D01*
X176817714Y-126850714D02*
X176436762Y-126850714D01*
X176674857Y-126517381D02*
X176674857Y-127374524D01*
X176627238Y-127469762D01*
X176532000Y-127517381D01*
X176436762Y-127517381D01*
X176103428Y-126850714D02*
X176103428Y-127850714D01*
X176103428Y-126898333D02*
X176008190Y-126850714D01*
X175817713Y-126850714D01*
X175722475Y-126898333D01*
X175674856Y-126945952D01*
X175627237Y-127041190D01*
X175627237Y-127326905D01*
X175674856Y-127422143D01*
X175722475Y-127469762D01*
X175817713Y-127517381D01*
X176008190Y-127517381D01*
X176103428Y-127469762D01*
X175198666Y-127517381D02*
X175198666Y-126850714D01*
X175198666Y-126945952D02*
X175151047Y-126898333D01*
X175055809Y-126850714D01*
X174912951Y-126850714D01*
X174817713Y-126898333D01*
X174770094Y-126993571D01*
X174770094Y-127517381D01*
X174770094Y-126993571D02*
X174722475Y-126898333D01*
X174627237Y-126850714D01*
X174484380Y-126850714D01*
X174389142Y-126898333D01*
X174341523Y-126993571D01*
X174341523Y-127517381D01*
X173436761Y-127517381D02*
X173436761Y-126993571D01*
X173484380Y-126898333D01*
X173579618Y-126850714D01*
X173770095Y-126850714D01*
X173865333Y-126898333D01*
X173436761Y-127469762D02*
X173531999Y-127517381D01*
X173770095Y-127517381D01*
X173865333Y-127469762D01*
X173912952Y-127374524D01*
X173912952Y-127279286D01*
X173865333Y-127184048D01*
X173770095Y-127136429D01*
X173531999Y-127136429D01*
X173436761Y-127088810D01*
X172960571Y-126850714D02*
X172960571Y-127517381D01*
X172960571Y-126945952D02*
X172912952Y-126898333D01*
X172817714Y-126850714D01*
X172674856Y-126850714D01*
X172579618Y-126898333D01*
X172531999Y-126993571D01*
X172531999Y-127517381D01*
X171912952Y-127517381D02*
X172008190Y-127469762D01*
X172055809Y-127374524D01*
X172055809Y-126517381D01*
X171151046Y-127469762D02*
X171246284Y-127517381D01*
X171436761Y-127517381D01*
X171531999Y-127469762D01*
X171579618Y-127374524D01*
X171579618Y-126993571D01*
X171531999Y-126898333D01*
X171436761Y-126850714D01*
X171246284Y-126850714D01*
X171151046Y-126898333D01*
X171103427Y-126993571D01*
X171103427Y-127088810D01*
X171579618Y-127184048D01*
X170770094Y-126850714D02*
X170531999Y-127517381D01*
X170293903Y-126850714D02*
X170531999Y-127517381D01*
X170627237Y-127755476D01*
X170674856Y-127803095D01*
X170770094Y-127850714D01*
X169198665Y-126469762D02*
X170055808Y-127755476D01*
X168436760Y-127517381D02*
X168436760Y-126517381D01*
X168436760Y-127469762D02*
X168531998Y-127517381D01*
X168722475Y-127517381D01*
X168817713Y-127469762D01*
X168865332Y-127422143D01*
X168912951Y-127326905D01*
X168912951Y-127041190D01*
X168865332Y-126945952D01*
X168817713Y-126898333D01*
X168722475Y-126850714D01*
X168531998Y-126850714D01*
X168436760Y-126898333D01*
X167817713Y-127517381D02*
X167912951Y-127469762D01*
X167960570Y-127422143D01*
X168008189Y-127326905D01*
X168008189Y-127041190D01*
X167960570Y-126945952D01*
X167912951Y-126898333D01*
X167817713Y-126850714D01*
X167674855Y-126850714D01*
X167579617Y-126898333D01*
X167531998Y-126945952D01*
X167484379Y-127041190D01*
X167484379Y-127326905D01*
X167531998Y-127422143D01*
X167579617Y-127469762D01*
X167674855Y-127517381D01*
X167817713Y-127517381D01*
X166627236Y-126850714D02*
X166627236Y-127660238D01*
X166674855Y-127755476D01*
X166722474Y-127803095D01*
X166817713Y-127850714D01*
X166960570Y-127850714D01*
X167055808Y-127803095D01*
X166627236Y-127469762D02*
X166722474Y-127517381D01*
X166912951Y-127517381D01*
X167008189Y-127469762D01*
X167055808Y-127422143D01*
X167103427Y-127326905D01*
X167103427Y-127041190D01*
X167055808Y-126945952D01*
X167008189Y-126898333D01*
X166912951Y-126850714D01*
X166722474Y-126850714D01*
X166627236Y-126898333D01*
X165722474Y-127469762D02*
X165817712Y-127517381D01*
X166008189Y-127517381D01*
X166103427Y-127469762D01*
X166151046Y-127422143D01*
X166198665Y-127326905D01*
X166198665Y-127041190D01*
X166151046Y-126945952D01*
X166103427Y-126898333D01*
X166008189Y-126850714D01*
X165817712Y-126850714D01*
X165722474Y-126898333D01*
X164865331Y-127517381D02*
X164865331Y-126993571D01*
X164912950Y-126898333D01*
X165008188Y-126850714D01*
X165198665Y-126850714D01*
X165293903Y-126898333D01*
X164865331Y-127469762D02*
X164960569Y-127517381D01*
X165198665Y-127517381D01*
X165293903Y-127469762D01*
X165341522Y-127374524D01*
X165341522Y-127279286D01*
X165293903Y-127184048D01*
X165198665Y-127136429D01*
X164960569Y-127136429D01*
X164865331Y-127088810D01*
X163960569Y-126850714D02*
X163960569Y-127660238D01*
X164008188Y-127755476D01*
X164055807Y-127803095D01*
X164151046Y-127850714D01*
X164293903Y-127850714D01*
X164389141Y-127803095D01*
X163960569Y-127469762D02*
X164055807Y-127517381D01*
X164246284Y-127517381D01*
X164341522Y-127469762D01*
X164389141Y-127422143D01*
X164436760Y-127326905D01*
X164436760Y-127041190D01*
X164389141Y-126945952D01*
X164341522Y-126898333D01*
X164246284Y-126850714D01*
X164055807Y-126850714D01*
X163960569Y-126898333D01*
X163103426Y-127469762D02*
X163198664Y-127517381D01*
X163389141Y-127517381D01*
X163484379Y-127469762D01*
X163531998Y-127374524D01*
X163531998Y-126993571D01*
X163484379Y-126898333D01*
X163389141Y-126850714D01*
X163198664Y-126850714D01*
X163103426Y-126898333D01*
X163055807Y-126993571D01*
X163055807Y-127088810D01*
X163531998Y-127184048D01*
X192436762Y-129817381D02*
X191865333Y-129817381D01*
X192151048Y-130817381D02*
X192151048Y-129817381D01*
X191389143Y-130817381D02*
X191484381Y-130769762D01*
X191532000Y-130722143D01*
X191579619Y-130626905D01*
X191579619Y-130341190D01*
X191532000Y-130245952D01*
X191484381Y-130198333D01*
X191389143Y-130150714D01*
X191246285Y-130150714D01*
X191151047Y-130198333D01*
X191103428Y-130245952D01*
X191055809Y-130341190D01*
X191055809Y-130626905D01*
X191103428Y-130722143D01*
X191151047Y-130769762D01*
X191246285Y-130817381D01*
X191389143Y-130817381D01*
X190627238Y-130817381D02*
X190627238Y-130150714D01*
X190627238Y-130245952D02*
X190579619Y-130198333D01*
X190484381Y-130150714D01*
X190341523Y-130150714D01*
X190246285Y-130198333D01*
X190198666Y-130293571D01*
X190198666Y-130817381D01*
X190198666Y-130293571D02*
X190151047Y-130198333D01*
X190055809Y-130150714D01*
X189912952Y-130150714D01*
X189817714Y-130198333D01*
X189770095Y-130293571D01*
X189770095Y-130817381D01*
X188532000Y-130817381D02*
X188532000Y-129817381D01*
X188198666Y-130531667D01*
X187865333Y-129817381D01*
X187865333Y-130817381D01*
X186960571Y-130817381D02*
X186960571Y-130293571D01*
X187008190Y-130198333D01*
X187103428Y-130150714D01*
X187293905Y-130150714D01*
X187389143Y-130198333D01*
X186960571Y-130769762D02*
X187055809Y-130817381D01*
X187293905Y-130817381D01*
X187389143Y-130769762D01*
X187436762Y-130674524D01*
X187436762Y-130579286D01*
X187389143Y-130484048D01*
X187293905Y-130436429D01*
X187055809Y-130436429D01*
X186960571Y-130388810D01*
X186484381Y-130150714D02*
X186484381Y-130817381D01*
X186484381Y-130245952D02*
X186436762Y-130198333D01*
X186341524Y-130150714D01*
X186198666Y-130150714D01*
X186103428Y-130198333D01*
X186055809Y-130293571D01*
X186055809Y-130817381D01*
X185436762Y-130817381D02*
X185532000Y-130769762D01*
X185579619Y-130674524D01*
X185579619Y-129817381D01*
X184674856Y-130769762D02*
X184770094Y-130817381D01*
X184960571Y-130817381D01*
X185055809Y-130769762D01*
X185103428Y-130674524D01*
X185103428Y-130293571D01*
X185055809Y-130198333D01*
X184960571Y-130150714D01*
X184770094Y-130150714D01*
X184674856Y-130198333D01*
X184627237Y-130293571D01*
X184627237Y-130388810D01*
X185103428Y-130484048D01*
X184293904Y-130150714D02*
X184055809Y-130817381D01*
X183817713Y-130150714D02*
X184055809Y-130817381D01*
X184151047Y-131055476D01*
X184198666Y-131103095D01*
X184293904Y-131150714D01*
X192436762Y-131800714D02*
X192055810Y-131800714D01*
X192293905Y-131467381D02*
X192293905Y-132324524D01*
X192246286Y-132419762D01*
X192151048Y-132467381D01*
X192055810Y-132467381D01*
X191579619Y-132467381D02*
X191674857Y-132419762D01*
X191722476Y-132372143D01*
X191770095Y-132276905D01*
X191770095Y-131991190D01*
X191722476Y-131895952D01*
X191674857Y-131848333D01*
X191579619Y-131800714D01*
X191436761Y-131800714D01*
X191341523Y-131848333D01*
X191293904Y-131895952D01*
X191246285Y-131991190D01*
X191246285Y-132276905D01*
X191293904Y-132372143D01*
X191341523Y-132419762D01*
X191436761Y-132467381D01*
X191579619Y-132467381D01*
X190817714Y-132467381D02*
X190817714Y-131800714D01*
X190817714Y-131895952D02*
X190770095Y-131848333D01*
X190674857Y-131800714D01*
X190531999Y-131800714D01*
X190436761Y-131848333D01*
X190389142Y-131943571D01*
X190389142Y-132467381D01*
X190389142Y-131943571D02*
X190341523Y-131848333D01*
X190246285Y-131800714D01*
X190103428Y-131800714D01*
X190008190Y-131848333D01*
X189960571Y-131943571D01*
X189960571Y-132467381D01*
X189484381Y-132372143D02*
X189436762Y-132419762D01*
X189484381Y-132467381D01*
X189532000Y-132419762D01*
X189484381Y-132372143D01*
X189484381Y-132467381D01*
X189008191Y-132467381D02*
X189008191Y-131800714D01*
X189008191Y-131895952D02*
X188960572Y-131848333D01*
X188865334Y-131800714D01*
X188722476Y-131800714D01*
X188627238Y-131848333D01*
X188579619Y-131943571D01*
X188579619Y-132467381D01*
X188579619Y-131943571D02*
X188532000Y-131848333D01*
X188436762Y-131800714D01*
X188293905Y-131800714D01*
X188198667Y-131848333D01*
X188151048Y-131943571D01*
X188151048Y-132467381D01*
X187246286Y-132467381D02*
X187246286Y-131943571D01*
X187293905Y-131848333D01*
X187389143Y-131800714D01*
X187579620Y-131800714D01*
X187674858Y-131848333D01*
X187246286Y-132419762D02*
X187341524Y-132467381D01*
X187579620Y-132467381D01*
X187674858Y-132419762D01*
X187722477Y-132324524D01*
X187722477Y-132229286D01*
X187674858Y-132134048D01*
X187579620Y-132086429D01*
X187341524Y-132086429D01*
X187246286Y-132038810D01*
X186770096Y-131800714D02*
X186770096Y-132467381D01*
X186770096Y-131895952D02*
X186722477Y-131848333D01*
X186627239Y-131800714D01*
X186484381Y-131800714D01*
X186389143Y-131848333D01*
X186341524Y-131943571D01*
X186341524Y-132467381D01*
X185722477Y-132467381D02*
X185817715Y-132419762D01*
X185865334Y-132324524D01*
X185865334Y-131467381D01*
X184960571Y-132419762D02*
X185055809Y-132467381D01*
X185246286Y-132467381D01*
X185341524Y-132419762D01*
X185389143Y-132324524D01*
X185389143Y-131943571D01*
X185341524Y-131848333D01*
X185246286Y-131800714D01*
X185055809Y-131800714D01*
X184960571Y-131848333D01*
X184912952Y-131943571D01*
X184912952Y-132038810D01*
X185389143Y-132134048D01*
X184579619Y-131800714D02*
X184341524Y-132467381D01*
X184103428Y-131800714D02*
X184341524Y-132467381D01*
X184436762Y-132705476D01*
X184484381Y-132753095D01*
X184579619Y-132800714D01*
X183103428Y-131991190D02*
X183151047Y-131943571D01*
X183246285Y-131895952D01*
X183341523Y-131895952D01*
X183436761Y-131943571D01*
X183484381Y-131991190D01*
X183532000Y-132086429D01*
X183532000Y-132181667D01*
X183484381Y-132276905D01*
X183436761Y-132324524D01*
X183341523Y-132372143D01*
X183246285Y-132372143D01*
X183151047Y-132324524D01*
X183103428Y-132276905D01*
X183103428Y-131895952D02*
X183103428Y-132276905D01*
X183055809Y-132324524D01*
X183008190Y-132324524D01*
X182912952Y-132276905D01*
X182865333Y-132181667D01*
X182865333Y-131943571D01*
X182960571Y-131800714D01*
X183103428Y-131705476D01*
X183293904Y-131657857D01*
X183484381Y-131705476D01*
X183627238Y-131800714D01*
X183722476Y-131943571D01*
X183770095Y-132134048D01*
X183722476Y-132324524D01*
X183627238Y-132467381D01*
X183484381Y-132562619D01*
X183293904Y-132610238D01*
X183103428Y-132562619D01*
X182960571Y-132467381D01*
X182008190Y-131800714D02*
X182008190Y-132610238D01*
X182055809Y-132705476D01*
X182103428Y-132753095D01*
X182198667Y-132800714D01*
X182341524Y-132800714D01*
X182436762Y-132753095D01*
X182008190Y-132419762D02*
X182103428Y-132467381D01*
X182293905Y-132467381D01*
X182389143Y-132419762D01*
X182436762Y-132372143D01*
X182484381Y-132276905D01*
X182484381Y-131991190D01*
X182436762Y-131895952D01*
X182389143Y-131848333D01*
X182293905Y-131800714D01*
X182103428Y-131800714D01*
X182008190Y-131848333D01*
X181532000Y-132467381D02*
X181532000Y-131800714D01*
X181532000Y-131895952D02*
X181484381Y-131848333D01*
X181389143Y-131800714D01*
X181246285Y-131800714D01*
X181151047Y-131848333D01*
X181103428Y-131943571D01*
X181103428Y-132467381D01*
X181103428Y-131943571D02*
X181055809Y-131848333D01*
X180960571Y-131800714D01*
X180817714Y-131800714D01*
X180722476Y-131848333D01*
X180674857Y-131943571D01*
X180674857Y-132467381D01*
X179770095Y-132467381D02*
X179770095Y-131943571D01*
X179817714Y-131848333D01*
X179912952Y-131800714D01*
X180103429Y-131800714D01*
X180198667Y-131848333D01*
X179770095Y-132419762D02*
X179865333Y-132467381D01*
X180103429Y-132467381D01*
X180198667Y-132419762D01*
X180246286Y-132324524D01*
X180246286Y-132229286D01*
X180198667Y-132134048D01*
X180103429Y-132086429D01*
X179865333Y-132086429D01*
X179770095Y-132038810D01*
X179293905Y-132467381D02*
X179293905Y-131800714D01*
X179293905Y-131467381D02*
X179341524Y-131515000D01*
X179293905Y-131562619D01*
X179246286Y-131515000D01*
X179293905Y-131467381D01*
X179293905Y-131562619D01*
X178674858Y-132467381D02*
X178770096Y-132419762D01*
X178817715Y-132324524D01*
X178817715Y-131467381D01*
X178293905Y-132372143D02*
X178246286Y-132419762D01*
X178293905Y-132467381D01*
X178341524Y-132419762D01*
X178293905Y-132372143D01*
X178293905Y-132467381D01*
X177389143Y-132419762D02*
X177484381Y-132467381D01*
X177674858Y-132467381D01*
X177770096Y-132419762D01*
X177817715Y-132372143D01*
X177865334Y-132276905D01*
X177865334Y-131991190D01*
X177817715Y-131895952D01*
X177770096Y-131848333D01*
X177674858Y-131800714D01*
X177484381Y-131800714D01*
X177389143Y-131848333D01*
X176817715Y-132467381D02*
X176912953Y-132419762D01*
X176960572Y-132372143D01*
X177008191Y-132276905D01*
X177008191Y-131991190D01*
X176960572Y-131895952D01*
X176912953Y-131848333D01*
X176817715Y-131800714D01*
X176674857Y-131800714D01*
X176579619Y-131848333D01*
X176532000Y-131895952D01*
X176484381Y-131991190D01*
X176484381Y-132276905D01*
X176532000Y-132372143D01*
X176579619Y-132419762D01*
X176674857Y-132467381D01*
X176817715Y-132467381D01*
X176055810Y-132467381D02*
X176055810Y-131800714D01*
X176055810Y-131895952D02*
X176008191Y-131848333D01*
X175912953Y-131800714D01*
X175770095Y-131800714D01*
X175674857Y-131848333D01*
X175627238Y-131943571D01*
X175627238Y-132467381D01*
X175627238Y-131943571D02*
X175579619Y-131848333D01*
X175484381Y-131800714D01*
X175341524Y-131800714D01*
X175246286Y-131848333D01*
X175198667Y-131943571D01*
X175198667Y-132467381D01*
M02*
