M48
INCH,TZ
T1C0.013
T2C0.030
T3C0.031
T4C0.032
T5C0.032
T6C0.039
T7C0.040
T8C0.045
T9C0.050
%
G90
G05
T1
X54300Y-50400
X55500Y-67500
X61000Y-67000
X62500Y-51000
X62700Y-54500
X65200Y-67200
X67500Y-63000
X68000Y-64000
X68000Y-68000
X68800Y-65200
X72800Y-68400
X76100Y-57600
X76100Y-61100
T2
X66669Y-53244
X66669Y-54031
X66669Y-54819
X66669Y-55606
X66669Y-56394
X66669Y-57181
X66669Y-57969
X66669Y-58756
X66669Y-59543
X66669Y-60331
X75331Y-53244
X75331Y-54031
X75331Y-54819
X75331Y-55606
X75331Y-56394
X75331Y-57181
X75331Y-57969
X75331Y-58756
X75331Y-59543
X75331Y-60331
T3
X53500Y-51000
X53500Y-52000
X53500Y-53000
X53500Y-54000
X53500Y-55000
X53500Y-56000
X53500Y-57000
X53500Y-58000
X53500Y-59000
X53500Y-60000
X53500Y-61000
X53500Y-62000
X53500Y-63000
X53500Y-64000
X54500Y-64000
X55500Y-64000
X56500Y-64000
X57500Y-64000
X58500Y-64000
X59500Y-51000
X59500Y-52000
X59500Y-53000
X59500Y-54000
X59500Y-55000
X59500Y-56000
X59500Y-57000
X59500Y-58000
X59500Y-59000
X59500Y-60000
X59500Y-61000
X59500Y-62000
X59500Y-63000
X59500Y-64000
T4
X66500Y-64206
X66500Y-64994
X66500Y-67206
X66500Y-67994
T5
X52000Y-66000
X52000Y-68000
X55000Y-66000
X55000Y-68000
T6
X63200Y-55900
X63200Y-56900
X63200Y-58300
X63200Y-62300
X69500Y-63999
T7
X52000Y-51000
X52000Y-52000
X52000Y-53000
X52000Y-54000
X52000Y-55000
X52000Y-56000
X52000Y-57000
X52000Y-58000
X52000Y-59000
X52000Y-60000
X52000Y-61000
X52000Y-62000
X52000Y-63000
X52000Y-64000
X57000Y-67000
X57000Y-68000
X59500Y-66000
X59500Y-67000
X59500Y-68000
X61000Y-51000
X61000Y-52000
X61000Y-53000
X61000Y-54000
X61000Y-55000
X61000Y-56000
X61000Y-57000
X61000Y-58000
X61000Y-59000
X61000Y-60000
X61000Y-61000
X61000Y-62000
X61000Y-63000
X61000Y-64000
X65000Y-52000
X65000Y-53000
X65000Y-54000
X65000Y-55000
X65000Y-56000
X65000Y-57000
X65000Y-58000
X65000Y-59000
X65000Y-60000
X65000Y-61000
X77000Y-52000
X77000Y-53000
X77000Y-54000
X77000Y-55000
X77000Y-56000
X77000Y-57000
X77000Y-58000
X77000Y-59000
X77000Y-60000
X77000Y-61000
T8
X63500Y-65500
X63500Y-66500
X63500Y-67500
T9
X73500Y-63999
T6
X73859Y-67394G85X73859Y-66607
G05
X75434Y-65150G85X74647Y-65150
G05
X76221Y-67394G85X76221Y-66607
G05
T0
M30
