G04 #@! TF.FileFunction,Legend,Top*
%FSLAX46Y46*%
G04 Gerber Fmt 4.6, Leading zero omitted, Abs format (unit mm)*
G04 Created by KiCad (PCBNEW (2015-05-10 BZR 5649)-product) date Thursday, May 21, 2015 'PMt' 11:43:20 PM*
%MOMM*%
G01*
G04 APERTURE LIST*
%ADD10C,0.100000*%
%ADD11C,0.150000*%
G04 APERTURE END LIST*
D10*
D11*
X167010080Y-172504100D02*
X167609520Y-172504100D01*
X167309800Y-172803820D02*
X167309800Y-172204380D01*
X171409360Y-171704000D02*
G75*
G03X171409360Y-171704000I-2499360J0D01*
G01*
X167010080Y-164884100D02*
X167609520Y-164884100D01*
X167309800Y-165183820D02*
X167309800Y-164584380D01*
X171409360Y-164084000D02*
G75*
G03X171409360Y-164084000I-2499360J0D01*
G01*
X197802500Y-174680880D02*
X197802500Y-165679120D01*
X201302620Y-174680880D02*
X201302620Y-165679120D01*
X201302620Y-165679120D02*
X186801760Y-165679120D01*
X186801760Y-165679120D02*
X186801760Y-174680880D01*
X186801760Y-174680880D02*
X201302620Y-174680880D01*
X159248000Y-141756000D02*
X159468000Y-141756000D01*
X161848000Y-141756000D02*
X161598000Y-141756000D01*
X161486072Y-145009424D02*
G75*
G03X161848000Y-141756000I-958072J1753424D01*
G01*
X161509528Y-144398935D02*
G75*
G03X161618000Y-142216000I-981528J1142935D01*
G01*
X159221274Y-141768780D02*
G75*
G03X159568000Y-145006000I1306726J-1497220D01*
G01*
X159453482Y-142208188D02*
G75*
G03X159588000Y-144426000I1074518J-1047812D01*
G01*
X184150000Y-162557460D02*
X185166000Y-162557460D01*
X179324000Y-162557460D02*
X178054000Y-162557460D01*
X179578000Y-161287460D02*
X179578000Y-163827460D01*
X179832000Y-161287460D02*
X179832000Y-163827460D01*
X180086000Y-161287460D02*
X180086000Y-163827460D01*
X179324000Y-161287460D02*
X179324000Y-163827460D01*
X180340000Y-161287460D02*
X179070000Y-163827460D01*
X179070000Y-161287460D02*
X180340000Y-163827460D01*
X180340000Y-161287460D02*
X180340000Y-163827460D01*
X179705000Y-161287460D02*
X179705000Y-163827460D01*
X179070000Y-163827460D02*
X179070000Y-161287460D01*
X179070000Y-161287460D02*
X184150000Y-161287460D01*
X184150000Y-161287460D02*
X184150000Y-163827460D01*
X184150000Y-163827460D02*
X179070000Y-163827460D01*
X174340000Y-126240000D02*
X168340000Y-134240000D01*
X168340000Y-134240000D02*
X174340000Y-126240000D01*
X174340000Y-126240000D02*
X186340000Y-126240000D01*
X192340000Y-134240000D02*
X186340000Y-126240000D01*
X192340000Y-134240000D02*
X192340000Y-159240000D01*
X168340000Y-159240000D02*
X192340000Y-159240000D01*
X168340000Y-159240000D02*
X168340000Y-156240000D01*
X168340000Y-134240000D02*
X168340000Y-156240000D01*
X168340000Y-156240000D02*
X168340000Y-134240000D01*
X146050000Y-171450000D02*
X146050000Y-173990000D01*
X146330000Y-168630000D02*
X146330000Y-170180000D01*
X146050000Y-171450000D02*
X143510000Y-171450000D01*
X143230000Y-170180000D02*
X143230000Y-168630000D01*
X143230000Y-168630000D02*
X146330000Y-168630000D01*
X143510000Y-171450000D02*
X143510000Y-173990000D01*
X143510000Y-173990000D02*
X146050000Y-173990000D01*
X149860000Y-168910000D02*
X149860000Y-173990000D01*
X149860000Y-173990000D02*
X152400000Y-173990000D01*
X152400000Y-173990000D02*
X152400000Y-168910000D01*
X152680000Y-166090000D02*
X152680000Y-167640000D01*
X152400000Y-168910000D02*
X149860000Y-168910000D01*
X149580000Y-167640000D02*
X149580000Y-166090000D01*
X149580000Y-166090000D02*
X152680000Y-166090000D01*
X166370000Y-133350000D02*
X166370000Y-156210000D01*
X166370000Y-156210000D02*
X163830000Y-156210000D01*
X163830000Y-156210000D02*
X163830000Y-133350000D01*
X166650000Y-130530000D02*
X166650000Y-132080000D01*
X166370000Y-133350000D02*
X163830000Y-133350000D01*
X163550000Y-132080000D02*
X163550000Y-130530000D01*
X163550000Y-130530000D02*
X166650000Y-130530000D01*
X196850000Y-133350000D02*
X196850000Y-156210000D01*
X196850000Y-156210000D02*
X194310000Y-156210000D01*
X194310000Y-156210000D02*
X194310000Y-133350000D01*
X197130000Y-130530000D02*
X197130000Y-132080000D01*
X196850000Y-133350000D02*
X194310000Y-133350000D01*
X194030000Y-132080000D02*
X194030000Y-130530000D01*
X194030000Y-130530000D02*
X197130000Y-130530000D01*
X130810000Y-130810000D02*
X130810000Y-163830000D01*
X130810000Y-163830000D02*
X133350000Y-163830000D01*
X133350000Y-163830000D02*
X133350000Y-130810000D01*
X133630000Y-127990000D02*
X133630000Y-129540000D01*
X133350000Y-130810000D02*
X130810000Y-130810000D01*
X130530000Y-129540000D02*
X130530000Y-127990000D01*
X130530000Y-127990000D02*
X133630000Y-127990000D01*
X153670000Y-130810000D02*
X153670000Y-163830000D01*
X153670000Y-163830000D02*
X156210000Y-163830000D01*
X156210000Y-163830000D02*
X156210000Y-130810000D01*
X156490000Y-127990000D02*
X156490000Y-129540000D01*
X156210000Y-130810000D02*
X153670000Y-130810000D01*
X153390000Y-129540000D02*
X153390000Y-127990000D01*
X153390000Y-127990000D02*
X156490000Y-127990000D01*
X162941000Y-173736000D02*
X159512000Y-173736000D01*
X162941000Y-164084000D02*
X159512000Y-164084000D01*
X164084000Y-174244000D02*
X164084000Y-163576000D01*
X163068000Y-170688000D02*
X164338000Y-170688000D01*
X163068000Y-167132000D02*
X164338000Y-167132000D01*
X162941000Y-163576000D02*
X162941000Y-174244000D01*
X159512000Y-174244000D02*
X159512000Y-163576000D01*
X164338000Y-163576000D02*
X159512000Y-163576000D01*
X164338000Y-174244000D02*
X159512000Y-174244000D01*
X164338000Y-174244000D02*
X164338000Y-163576000D01*
X159258000Y-155702000D02*
X159258000Y-150622000D01*
X159258000Y-150622000D02*
X161798000Y-150622000D01*
X161798000Y-150622000D02*
X161798000Y-155702000D01*
X161798000Y-155702000D02*
X159258000Y-155702000D01*
X160528000Y-155702000D02*
X160528000Y-156972000D01*
X160528000Y-150622000D02*
X160528000Y-149352000D01*
X138430000Y-170180000D02*
G75*
G03X138430000Y-170180000I-2540000J0D01*
G01*
X132080000Y-166370000D02*
X139700000Y-166370000D01*
X139700000Y-166370000D02*
X139700000Y-173990000D01*
X139700000Y-173990000D02*
X132080000Y-173990000D01*
X132080000Y-166370000D02*
X132080000Y-173990000D01*
X177546000Y-166624000D02*
X174498000Y-166624000D01*
X174498000Y-166624000D02*
X174498000Y-173736000D01*
X174498000Y-173736000D02*
X177546000Y-173736000D01*
X180594000Y-166624000D02*
X181356000Y-166624000D01*
X181356000Y-166624000D02*
X183642000Y-168148000D01*
X183642000Y-168148000D02*
X183642000Y-172212000D01*
X183642000Y-172212000D02*
X181356000Y-173736000D01*
X181356000Y-173736000D02*
X180594000Y-173736000D01*
X148590000Y-129540000D02*
X148590000Y-160020000D01*
X148590000Y-160020000D02*
X138430000Y-160020000D01*
X138430000Y-160020000D02*
X138430000Y-129540000D01*
X138430000Y-129540000D02*
X148590000Y-129540000D01*
X194881524Y-163282381D02*
X194405333Y-163282381D01*
X194357714Y-163758571D01*
X194405333Y-163710952D01*
X194500571Y-163663333D01*
X194738667Y-163663333D01*
X194833905Y-163710952D01*
X194881524Y-163758571D01*
X194929143Y-163853810D01*
X194929143Y-164091905D01*
X194881524Y-164187143D01*
X194833905Y-164234762D01*
X194738667Y-164282381D01*
X194500571Y-164282381D01*
X194405333Y-164234762D01*
X194357714Y-164187143D01*
X195214857Y-163282381D02*
X195548190Y-164282381D01*
X195881524Y-163282381D01*
X158599428Y-139612667D02*
X159075619Y-139612667D01*
X158504190Y-139898381D02*
X158837523Y-138898381D01*
X159170857Y-139898381D01*
X159456571Y-139850762D02*
X159551809Y-139898381D01*
X159742285Y-139898381D01*
X159837524Y-139850762D01*
X159885143Y-139755524D01*
X159885143Y-139707905D01*
X159837524Y-139612667D01*
X159742285Y-139565048D01*
X159599428Y-139565048D01*
X159504190Y-139517429D01*
X159456571Y-139422190D01*
X159456571Y-139374571D01*
X159504190Y-139279333D01*
X159599428Y-139231714D01*
X159742285Y-139231714D01*
X159837524Y-139279333D01*
X160266095Y-139850762D02*
X160361333Y-139898381D01*
X160551809Y-139898381D01*
X160647048Y-139850762D01*
X160694667Y-139755524D01*
X160694667Y-139707905D01*
X160647048Y-139612667D01*
X160551809Y-139565048D01*
X160408952Y-139565048D01*
X160313714Y-139517429D01*
X160266095Y-139422190D01*
X160266095Y-139374571D01*
X160313714Y-139279333D01*
X160408952Y-139231714D01*
X160551809Y-139231714D01*
X160647048Y-139279333D01*
X161266095Y-139898381D02*
X161170857Y-139850762D01*
X161123238Y-139803143D01*
X161075619Y-139707905D01*
X161075619Y-139422190D01*
X161123238Y-139326952D01*
X161170857Y-139279333D01*
X161266095Y-139231714D01*
X161408953Y-139231714D01*
X161504191Y-139279333D01*
X161551810Y-139326952D01*
X161599429Y-139422190D01*
X161599429Y-139707905D01*
X161551810Y-139803143D01*
X161504191Y-139850762D01*
X161408953Y-139898381D01*
X161266095Y-139898381D01*
X162456572Y-139850762D02*
X162361334Y-139898381D01*
X162170857Y-139898381D01*
X162075619Y-139850762D01*
X162028000Y-139803143D01*
X161980381Y-139707905D01*
X161980381Y-139422190D01*
X162028000Y-139326952D01*
X162075619Y-139279333D01*
X162170857Y-139231714D01*
X162361334Y-139231714D01*
X162456572Y-139279333D01*
X178649524Y-141692381D02*
X179316191Y-142692381D01*
X179316191Y-141692381D02*
X178649524Y-142692381D01*
X180030477Y-142168571D02*
X180173334Y-142216190D01*
X180220953Y-142263810D01*
X180268572Y-142359048D01*
X180268572Y-142501905D01*
X180220953Y-142597143D01*
X180173334Y-142644762D01*
X180078096Y-142692381D01*
X179697143Y-142692381D01*
X179697143Y-141692381D01*
X180030477Y-141692381D01*
X180125715Y-141740000D01*
X180173334Y-141787619D01*
X180220953Y-141882857D01*
X180220953Y-141978095D01*
X180173334Y-142073333D01*
X180125715Y-142120952D01*
X180030477Y-142168571D01*
X179697143Y-142168571D01*
X181078096Y-142644762D02*
X180982858Y-142692381D01*
X180792381Y-142692381D01*
X180697143Y-142644762D01*
X180649524Y-142549524D01*
X180649524Y-142168571D01*
X180697143Y-142073333D01*
X180792381Y-142025714D01*
X180982858Y-142025714D01*
X181078096Y-142073333D01*
X181125715Y-142168571D01*
X181125715Y-142263810D01*
X180649524Y-142359048D01*
X181935239Y-142644762D02*
X181840001Y-142692381D01*
X181649524Y-142692381D01*
X181554286Y-142644762D01*
X181506667Y-142549524D01*
X181506667Y-142168571D01*
X181554286Y-142073333D01*
X181649524Y-142025714D01*
X181840001Y-142025714D01*
X181935239Y-142073333D01*
X181982858Y-142168571D01*
X181982858Y-142263810D01*
X181506667Y-142359048D01*
X142946381Y-173688191D02*
X141946381Y-173688191D01*
X141946381Y-173450096D01*
X141994000Y-173307238D01*
X142089238Y-173212000D01*
X142184476Y-173164381D01*
X142374952Y-173116762D01*
X142517810Y-173116762D01*
X142708286Y-173164381D01*
X142803524Y-173212000D01*
X142898762Y-173307238D01*
X142946381Y-173450096D01*
X142946381Y-173688191D01*
X142946381Y-172545334D02*
X142898762Y-172640572D01*
X142851143Y-172688191D01*
X142755905Y-172735810D01*
X142470190Y-172735810D01*
X142374952Y-172688191D01*
X142327333Y-172640572D01*
X142279714Y-172545334D01*
X142279714Y-172402476D01*
X142327333Y-172307238D01*
X142374952Y-172259619D01*
X142470190Y-172212000D01*
X142755905Y-172212000D01*
X142851143Y-172259619D01*
X142898762Y-172307238D01*
X142946381Y-172402476D01*
X142946381Y-172545334D01*
X142946381Y-171640572D02*
X142898762Y-171735810D01*
X142851143Y-171783429D01*
X142755905Y-171831048D01*
X142470190Y-171831048D01*
X142374952Y-171783429D01*
X142327333Y-171735810D01*
X142279714Y-171640572D01*
X142279714Y-171497714D01*
X142327333Y-171402476D01*
X142374952Y-171354857D01*
X142470190Y-171307238D01*
X142755905Y-171307238D01*
X142851143Y-171354857D01*
X142898762Y-171402476D01*
X142946381Y-171497714D01*
X142946381Y-171640572D01*
X142946381Y-170878667D02*
X142279714Y-170878667D01*
X142470190Y-170878667D02*
X142374952Y-170831048D01*
X142327333Y-170783429D01*
X142279714Y-170688191D01*
X142279714Y-170592952D01*
X149248762Y-173815143D02*
X149296381Y-173672286D01*
X149296381Y-173434190D01*
X149248762Y-173338952D01*
X149201143Y-173291333D01*
X149105905Y-173243714D01*
X149010667Y-173243714D01*
X148915429Y-173291333D01*
X148867810Y-173338952D01*
X148820190Y-173434190D01*
X148772571Y-173624667D01*
X148724952Y-173719905D01*
X148677333Y-173767524D01*
X148582095Y-173815143D01*
X148486857Y-173815143D01*
X148391619Y-173767524D01*
X148344000Y-173719905D01*
X148296381Y-173624667D01*
X148296381Y-173386571D01*
X148344000Y-173243714D01*
X149248762Y-172434190D02*
X149296381Y-172529428D01*
X149296381Y-172719905D01*
X149248762Y-172815143D01*
X149153524Y-172862762D01*
X148772571Y-172862762D01*
X148677333Y-172815143D01*
X148629714Y-172719905D01*
X148629714Y-172529428D01*
X148677333Y-172434190D01*
X148772571Y-172386571D01*
X148867810Y-172386571D01*
X148963048Y-172862762D01*
X149296381Y-171958000D02*
X148629714Y-171958000D01*
X148820190Y-171958000D02*
X148724952Y-171910381D01*
X148677333Y-171862762D01*
X148629714Y-171767524D01*
X148629714Y-171672285D01*
X148629714Y-171434190D02*
X149296381Y-171196095D01*
X148629714Y-170957999D01*
X149296381Y-170434190D02*
X149248762Y-170529428D01*
X149201143Y-170577047D01*
X149105905Y-170624666D01*
X148820190Y-170624666D01*
X148724952Y-170577047D01*
X148677333Y-170529428D01*
X148629714Y-170434190D01*
X148629714Y-170291332D01*
X148677333Y-170196094D01*
X148724952Y-170148475D01*
X148820190Y-170100856D01*
X149105905Y-170100856D01*
X149201143Y-170148475D01*
X149248762Y-170196094D01*
X149296381Y-170291332D01*
X149296381Y-170434190D01*
X130008381Y-173926191D02*
X130008381Y-173354762D01*
X131008381Y-173640477D02*
X130008381Y-173640477D01*
X131008381Y-173021429D02*
X130341714Y-173021429D01*
X130532190Y-173021429D02*
X130436952Y-172973810D01*
X130389333Y-172926191D01*
X130341714Y-172830953D01*
X130341714Y-172735714D01*
X131008381Y-172402381D02*
X130341714Y-172402381D01*
X130008381Y-172402381D02*
X130056000Y-172450000D01*
X130103619Y-172402381D01*
X130056000Y-172354762D01*
X130008381Y-172402381D01*
X130103619Y-172402381D01*
X130341714Y-171497619D02*
X131151238Y-171497619D01*
X131246476Y-171545238D01*
X131294095Y-171592857D01*
X131341714Y-171688096D01*
X131341714Y-171830953D01*
X131294095Y-171926191D01*
X130960762Y-171497619D02*
X131008381Y-171592857D01*
X131008381Y-171783334D01*
X130960762Y-171878572D01*
X130913143Y-171926191D01*
X130817905Y-171973810D01*
X130532190Y-171973810D01*
X130436952Y-171926191D01*
X130389333Y-171878572D01*
X130341714Y-171783334D01*
X130341714Y-171592857D01*
X130389333Y-171497619D01*
X130341714Y-170592857D02*
X131151238Y-170592857D01*
X131246476Y-170640476D01*
X131294095Y-170688095D01*
X131341714Y-170783334D01*
X131341714Y-170926191D01*
X131294095Y-171021429D01*
X130960762Y-170592857D02*
X131008381Y-170688095D01*
X131008381Y-170878572D01*
X130960762Y-170973810D01*
X130913143Y-171021429D01*
X130817905Y-171069048D01*
X130532190Y-171069048D01*
X130436952Y-171021429D01*
X130389333Y-170973810D01*
X130341714Y-170878572D01*
X130341714Y-170688095D01*
X130389333Y-170592857D01*
X130960762Y-169735714D02*
X131008381Y-169830952D01*
X131008381Y-170021429D01*
X130960762Y-170116667D01*
X130865524Y-170164286D01*
X130484571Y-170164286D01*
X130389333Y-170116667D01*
X130341714Y-170021429D01*
X130341714Y-169830952D01*
X130389333Y-169735714D01*
X130484571Y-169688095D01*
X130579810Y-169688095D01*
X130675048Y-170164286D01*
X131008381Y-169259524D02*
X130341714Y-169259524D01*
X130532190Y-169259524D02*
X130436952Y-169211905D01*
X130389333Y-169164286D01*
X130341714Y-169069048D01*
X130341714Y-168973809D01*
X142708381Y-148446667D02*
X142708381Y-147875238D01*
X143708381Y-148160953D02*
X142708381Y-148160953D01*
X143660762Y-147160952D02*
X143708381Y-147256190D01*
X143708381Y-147446667D01*
X143660762Y-147541905D01*
X143565524Y-147589524D01*
X143184571Y-147589524D01*
X143089333Y-147541905D01*
X143041714Y-147446667D01*
X143041714Y-147256190D01*
X143089333Y-147160952D01*
X143184571Y-147113333D01*
X143279810Y-147113333D01*
X143375048Y-147589524D01*
X143660762Y-146303809D02*
X143708381Y-146399047D01*
X143708381Y-146589524D01*
X143660762Y-146684762D01*
X143565524Y-146732381D01*
X143184571Y-146732381D01*
X143089333Y-146684762D01*
X143041714Y-146589524D01*
X143041714Y-146399047D01*
X143089333Y-146303809D01*
X143184571Y-146256190D01*
X143279810Y-146256190D01*
X143375048Y-146732381D01*
X143041714Y-145827619D02*
X143708381Y-145827619D01*
X143136952Y-145827619D02*
X143089333Y-145780000D01*
X143041714Y-145684762D01*
X143041714Y-145541904D01*
X143089333Y-145446666D01*
X143184571Y-145399047D01*
X143708381Y-145399047D01*
X143660762Y-144970476D02*
X143708381Y-144875238D01*
X143708381Y-144684762D01*
X143660762Y-144589523D01*
X143565524Y-144541904D01*
X143517905Y-144541904D01*
X143422667Y-144589523D01*
X143375048Y-144684762D01*
X143375048Y-144827619D01*
X143327429Y-144922857D01*
X143232190Y-144970476D01*
X143184571Y-144970476D01*
X143089333Y-144922857D01*
X143041714Y-144827619D01*
X143041714Y-144684762D01*
X143089333Y-144589523D01*
X143041714Y-144208571D02*
X143708381Y-143970476D01*
X143041714Y-143732380D02*
X143708381Y-143970476D01*
X143946476Y-144065714D01*
X143994095Y-144113333D01*
X144041714Y-144208571D01*
X143708381Y-142113332D02*
X143708381Y-142589523D01*
X142708381Y-142589523D01*
X143613143Y-141208570D02*
X143660762Y-141256189D01*
X143708381Y-141399046D01*
X143708381Y-141494284D01*
X143660762Y-141637142D01*
X143565524Y-141732380D01*
X143470286Y-141779999D01*
X143279810Y-141827618D01*
X143136952Y-141827618D01*
X142946476Y-141779999D01*
X142851238Y-141732380D01*
X142756000Y-141637142D01*
X142708381Y-141494284D01*
X142708381Y-141399046D01*
X142756000Y-141256189D01*
X142803619Y-141208570D01*
M02*
